<svg id="Layer_1" data-name="Layer 1" xmlns="http://www.w3.org/2000/svg" viewBox="0 0 957.24 538.49"><defs><style>.cls-1{fill:#24253c;}.cls-2{fill:#eeefef;}.cls-3{fill:#b7dedc;}.cls-4{fill:#d9eae9;}.cls-5{fill:#cbe6e4;}.cls-6{fill:#9ebfcb;}.cls-7{fill:#04a19c;}.cls-8{fill:#f6b44c;}.cls-9{fill:#f5f4f3;}.cls-10{fill:#e8eded;}.cls-11{fill:#9cbec9;}.cls-12{fill:#f4f2f1;}.cls-13{fill:#3eaec6;}.cls-14{fill:#f7cb4e;}.cls-15{fill:#f6d39a;}.cls-16{fill:#2f84b1;}.cls-17{fill:#a5c8d5;}.cls-18{fill:#4fbfb4;}.cls-19{fill:#13354c;}.cls-20{fill:#7bb6a7;}.cls-21{fill:#83c29e;}.cls-22{fill:#e94039;}.cls-23{fill:#0a848c;}.cls-24{fill:#3cb5a2;}.cls-25{fill:#26243b;}.cls-26{fill:#3f9eb5;}.cls-27{fill:#edc37c;}.cls-28{fill:#c7e3e0;}.cls-29{fill:#2189af;}.cls-30{fill:#e89a93;}.cls-31{fill:#02577d;}.cls-32{fill:#f3b34d;}.cls-33{fill:#0b5676;}.cls-34{fill:#085370;}.cls-35{fill:#32adc7;}.cls-36{fill:#e67b72;}.cls-37{fill:#3bb6a4;}.cls-38{fill:#324553;}.cls-39{fill:#2fb0a2;}.cls-40{fill:#79c3ba;}.cls-41{fill:#e5aaaf;}.cls-42{fill:#ebc48f;}.cls-43{fill:#df5355;}.cls-44{fill:#f0b85e;}.cls-45{fill:#dfe0de;}.cls-46{fill:#83ccc4;}.cls-47{fill:#0f6f8d;}.cls-48{fill:#d34140;}.cls-49{fill:#81ccc5;}.cls-50{fill:#e03e36;}.cls-51{fill:#e64f3f;}.cls-52{fill:#547e7f;}.cls-53{fill:#e9ebed;}.cls-54{fill:#c8dde6;}.cls-55{fill:#50414c;}.cls-56{fill:#5fb5c5;}.cls-57{fill:#d54c4a;}.cls-58{fill:#59a7b6;}.cls-59{fill:#54a4b3;}.cls-60{fill:#e1403c;}.cls-61{fill:#e75451;}.cls-62{fill:#4aadc2;}.cls-63{fill:#32b0c5;}.cls-64{fill:#b7d9e3;}.cls-65{fill:#f5be73;}.cls-66{fill:#32454c;}.cls-67{fill:#d62527;}.cls-68{fill:#ed644a;}.cls-69{fill:#f1724f;}.cls-70{fill:#43bbad;}.cls-71{fill:#f3a9aa;}.cls-72{fill:#f3a8a9;}.cls-73{fill:#cd7e80;}.cls-74{fill:#8cc0c4;}.cls-75{fill:#084653;}.cls-76{fill:#cce5ea;}.cls-77{fill:#eb8b56;}.cls-78{fill:#f5b24c;}.cls-79{fill:#f4b446;}.cls-80{fill:#eebf6b;}.cls-81{fill:#e64442;}.cls-82{fill:#e95358;}.cls-83{fill:#43aec6;}.cls-84{fill:#ec5845;}.cls-85{fill:#a5d7d4;}.cls-86{fill:#e8c376;}.cls-87{fill:#0b3f4e;}.cls-88{fill:#0d505e;}.cls-89{fill:#0b3546;}.cls-90{fill:#1f6c7c;}.cls-91{fill:#e4c886;}.cls-92{fill:#1f6b7d;}.cls-93{fill:#544b55;}.cls-94{fill:#7acac7;}.cls-95{fill:#e53e37;}.cls-96{fill:#10b09e;}.cls-97{fill:#3db48e;}.cls-98{fill:#0c3f5b;}.cls-99{fill:#155a79;}.cls-100{fill:#f4b954;}.cls-101{fill:#0a9091;}.cls-102{fill:#a8d3cc;}.cls-103{fill:#eceeed;}.cls-104{fill:#1da6d0;}.cls-105{fill:#efb2b4;}.cls-106{fill:#85ccdb;}.cls-107{fill:#ed5945;}.cls-108{fill:#1e84a5;}.cls-109{fill:#b5d5e1;}.cls-110{fill:#e54e48;}.cls-111{fill:#13587c;}.cls-112{fill:#54c0d3;}.cls-113{fill:#ee9d41;}.cls-114{fill:#35b6cf;}.cls-115{fill:#13acc7;}.cls-116{fill:#43b0c4;}.cls-117{fill:#0b95b4;}.cls-118{fill:#e94038;}.cls-119{fill:#c4dbdb;}.cls-120{fill:#f0f0ef;}.cls-121{fill:#eff0ef;}.cls-122{fill:#85ccc6;}.cls-123{fill:#71c2bd;}.cls-124{fill:#dbe9e8;}.cls-125{fill:#80b576;}.cls-126{fill:#98b66e;}.cls-127{fill:#92d2d7;}.cls-128{fill:#dee7e6;}.cls-129{fill:#addbe5;}.cls-130{fill:#eea7a9;}.cls-131{fill:#47a9bd;}.cls-132{fill:#353057;}.cls-133{fill:#22acc4;}.cls-134{fill:#1788a7;}.cls-135{fill:#bed8e2;}.cls-136{fill:#5eb583;}.cls-137{fill:#d2e4de;}.cls-138{fill:#20aec9;}</style></defs><path class="cls-1" d="M496.35,312c43.95-12.8,70.79-1,88.48,41.37,10.28,24.66,25.36,42,52.31,47.18,24.44.7,43,11.16,54.75,33,3.61,11.48,2.12,22.93-.28,34.37,33.15,4.85,41.39,31.34,50,57.52,9.13,23.47-6.88,54.86-34.28,67.29-19.11-2.39-22.86-21-33.9-32-21.85-29.49-43.53-59.18-80.65-71.48-15-9.33-34-12.46-44.32-28.87a20.61,20.61,0,0,1-.93-11.88c8-16,19.42-30.59,18.73-50.22-.43-11.94-4.47-18.68-16.71-21.09-12.76-2.51-26.72-3.62-34.33-16.3-34.89,30.65-19.21,60.9,2.45,91,1.06,5.38-.61,10-3.77,14.28-10.29,11.65-24.52,16.83-38.11,23.06-16.77,5.44-32.15,13-43.53,27.21-2.71,3.39-5.95,7.78-11.69,4.61-5.8-8.14-2.63-19.88-10.94-27-7.49-12.31-10.64-25.53-8.45-39.89,1.56-7.33,4.95-13.9,8.57-20.37,3.88-6.49,9.15-11.89,16-14.75,26.09-10.9,36-32.29,39.1-58.4,1.52-12.77,4.83-25,12.26-35.67C481.78,318.2,487.5,312.76,496.35,312Z" transform="translate(-61.38 -270.75)"/><path class="cls-2" d="M927.09,582.78c-4.32,10.64,9.38,9.83,11.16,17.81,2.37,10.55-4.47,19.17-3,29-7.74,5.25-8.93,17.64-20.48,18.77-14.13-2.83-17.34-16-24.36-25.58-3-3.65-6.87-6.37-11.42-6.79-16.45-1.49-14.89-10.72-9.87-21.72,1.69-4.74,3.64-9.43,3.3-14.66.56-6.92,3.56-13.31,4.29-20.19-.67-9.16-4.79-16.14-14.67-13.94-9.53,2.11-10.86,10.22-8.29,18.87,2.26,6,6.25,11.08,8.64,17,1.7,4.37,3.21,8.79,3.41,13.53-9.72,16.48-19.72,17.67-32.78,3.91-16.6,18.4-18.58,18.39-33-.24-5-23.15-18.68-45.14-9.58-70.23,11-7.61-1.34-24.06,11.68-30.95a457.53,457.53,0,0,1,101.91.31c13.2,9,11.19,24.27,15.1,37.11a107.15,107.15,0,0,1,1.77,12.61C923.34,559.11,930,570.12,927.09,582.78Z" transform="translate(-61.38 -270.75)"/><path class="cls-3" d="M248.73,534.61c-17.91-14.06-.33-25.89,3.16-37.89,9-31.06,19.71-61.68,44.4-84.72,9-.5,8,6.91,9.24,12.16,1.29,5.62,0,12,5.39,16.22,7.43,11.24,18.38,19.24,27.06,29.27,9.47,11,7.51,19.58-4,23.22-21,6.63-21,6.63-7.26,25.47,4.25,6.1,11.42,8.54,16.79,13.22,5.33,5.64,9.76,11.58,2.91,18.93-9,9.62-1.2,13.57,5.7,18.18,8.06,5.38,19.18,6.58,23.51,17.11-2.91,19.29-17.81,31.51-27.53,46.81a250,250,0,0,1-20,27.63c-3.21,3.89-6.48,11.93-14,4.59-6.2-14.28-.55-29.74-4.43-44.24a17.21,17.21,0,0,1,.84-9c3.57-6.4,12.95-7.93,13.44-18-6.87,3.14-12.4.15-17-5.36-3.31-4.56-6.54-9.18-8.68-14.45-1-6.08-2.65-12.08-1.34-18.83-9.16,3-4.42,10.71-7.2,15.34-2.28,3.43-5.19,5.57-9.58,4.56-9.66-12-17.78-25.16-27.35-37.21A20.44,20.44,0,0,1,248.73,534.61Z" transform="translate(-61.38 -270.75)"/><path class="cls-4" d="M496.35,312c-16.22,13.28-24.09,30.21-26.6,51.26-3,25-11.8,47.49-38.27,58.34-7,2.89-12.45,9.71-18.61,14.72a5.5,5.5,0,0,1-6-6.36c3-27.31-16.29-42-32.6-58.39-4.37-7.7-8-15.43-1.06-23.61-6.65-18.74,6.21-21.71,19.66-27.21,24.74-10.13,49.45-21.32,76.41-16.28,10,1.87,16.95,4,23-4.59C500.06,302.78,487.56,310.25,496.35,312Z" transform="translate(-61.38 -270.75)"/><path class="cls-5" d="M378.39,371.78c28.18,12.62,33.13,37.63,34.48,64.57l-7.59,17.2c-9.52-1-17.95-3.12-24.81,8.52-8,13.58-17.47,11.6-24.22-3-3.35-7.24-3.94-15.36-7.17-22.64-2.14-5.94-5.48-10.89-11.45-13.63-20.12-6.76-20.14-6.76-24.31,13.1-.68,3.22-1.31,6.39-4,8.64-9.66-.7-8.41-7.92-8.77-14.38-.35-6.28,1.88-13.23-4.24-18.2.13-13.16,14.6-18.94,16.14-31.37,6.48-8,15.71-6,24.13-6.4C350.51,373.51,364.61,375.47,378.39,371.78Z" transform="translate(-61.38 -270.75)"/><path class="cls-6" d="M90,735.05c3-16.35,10.64-34.07-12.41-42.91,25.62-6.71,51.71-2.31,77.54-2.53,14.87-.13,29.21-3.1,43.83-3.89,27.05-1.47,40.9,10.52,37.66,31.69-1.91,12.42-8.26,22.27-21.56,22.93-38.22,1.91-76.49,1.44-114.74.22A12.86,12.86,0,0,1,90,735.05Z" transform="translate(-61.38 -270.75)"/><path class="cls-7" d="M530.71,768.62c-8.54-1.47-7.57,4.41-8.12,9.85-1,9.7,3.64,19.88-2.47,29.11a12.1,12.1,0,0,1-5.82-7.84c-1.46-6.52-.51-13.3-2.16-19.8-3.62-8.54-11.3-5.8-17.53-5.9-22.84-.35-45.69,0-68.54-.18-8.68-.05-17.59.73-25.21-5-4.21-5.64-4.3-11.71-2-18.05,5.63-11.63,16.39-9.71,26.25-9.68,56.9.2,113.81-.07,170.71.13,19.42.06,38.81-.12,58.14-2.31a19.08,19.08,0,0,1,10.77,3.31c6,7.65,5.76,15.84,2.12,24.33-4.51,6.23-11.68,7.73-18,6.39-22.21-4.71-43.84,1.86-65.75,2.08-14.36-2-28.89-.59-43.29-2.08C536.42,772.35,533.52,770.59,530.71,768.62Z" transform="translate(-61.38 -270.75)"/><path class="cls-8" d="M927.09,582.78c-6.94-9.94-8.21-21.53-9.66-33.07,3.89-6.23,10.88-7.2,16.83-10,18.82-8.82,25-25.49,15.83-42.6-9.77-18.31-29.86-23.21-47.4-11.4-3.29,2.22-6,5.27-9.89,6.74-7.56,1.88-14.95,2.94-20.94-3.77-1.78-8.66-16.31-24.85-1.05-24.2,21.18.9,32.37-4.66,43.44-20.42,2.82-4,11.28-3,13.89,7.18s11,17.39,22.51,8.53c6.85-5.25,11.88-2.94,17.86,1.39,7.94,5.75,1.54,9.19-.61,14.54-4.75,11.82,1.25,19,13.24,20.78,5.62.85,11,.95,10.59,8.62-.31,5.6,1.88,13-8,12.51a8.07,8.07,0,0,1-1.33-1.42,4.9,4.9,0,0,1-.26-1.61c-3.16,7.4-18.06,6.16-13.92,18.92-.24,4.35,1.78,7.46,5,10.16,3.56,2.93,8.17,6.43,2.93,11.13-4,3.6-7.1,11.67-14.31,7.53-16.61-9.55-24.2-4.54-25.65,13.77C935.86,580.69,930.27,580.66,927.09,582.78Z" transform="translate(-61.38 -270.75)"/><path class="cls-9" d="M914.86,804.46l-8.42,3.71c-11.6-3.93-23.59-.9-35.34-2-6.3-.58-13.44,2.55-18.57-3.82-4-10.33.61-20.33,1.07-30.5,5.39-21.81,5.13-44.8,13.68-66a15.43,15.43,0,0,1,8.27-6.65c13.07-1,27.43-6.48,35.6,10,2.33,9.25,1.69,18.67,1.45,28.07,0,3.35,0,6.72.08,10.08,0,18.38,12,35.79,4.59,54.8Z" transform="translate(-61.38 -270.75)"/><path class="cls-10" d="M704.48,591.92c23.21-16.12,36.9-37.54,37.11-66.49,8-1,16.27,2.08,24.07-4,9.05-7,6.31,6.37,11,7.59l2.05,1.89c2.41,10.41-.82,20.36-2.51,30.46-7.25,29.53-11.14,60-24.21,87.89-11.15,6.58-15.68-3.11-20.71-9.25-8.92-10.88-15.74-23.33-24.28-34.54C704.38,601.31,701.21,597.19,704.48,591.92Z" transform="translate(-61.38 -270.75)"/><path class="cls-11" d="M82.46,771.91c-1.13-12.68-9.33-19.57-20-24.4,25.32-8.79,51.57-5,77.46-5.42,28.75-.44,57.53-.76,86.26.2,22.25.74,29.48,9.11,28.86,31-9.81,12.51-23.77,3.51-35.53,6.63-10.94,2.91-22.47,2.55-33.77,1-9.13-3.57-18.33-1.46-27.56-.14-16.11-6.16-32.86-2-49.27-3.12C99.79,777.05,90.13,779.09,82.46,771.91Z" transform="translate(-61.38 -270.75)"/><path class="cls-12" d="M182.29,683c-10.16-1.71-4.8-7.23-2.92-11.89,13.4-14.51,13.51-33.9,19.16-51.29,2.38-7.32.74-20,15.43-16.05,6.84,16.61,1.4,34.24,3.87,49.35,5.52-24.72,4.07-51.62,4.26-78.46.83-11.51-7.76-24.45,5.21-34.09,8.3-1.27,13.5,2.61,16.64,9.95,3.49,37.58,3.2,75.62,13.8,112.36,2.35,8.14,6.62,16.2,2.8,25.09-9.47,6.89-20.11,4.7-30.56,3.93C215,684.27,196.48,695.14,182.29,683Z" transform="translate(-61.38 -270.75)"/><path class="cls-13" d="M378.39,371.78c2.7,8.56-3,8-8.53,8.08-19.15.17-38.29.5-57.43.77l.4-1.12C302.17,366.75,311,349.17,302,336c-2.43-6.47-6.21-12.78-2.43-20,5-1.91,9.65,3.85,16-2.24,16.31-15.61,31.19-11.1,36.66,11.89,3.11,13.09,8.11,20.36,21,22.32C372.57,356.43,375.62,364.08,378.39,371.78Z" transform="translate(-61.38 -270.75)"/><path class="cls-14" d="M615.85,340.3c-10.21-8.76-12.51-21.71-16.35-33.38-4.56-13.89,1.88-25.3,14.33-32,11.42-6.14,22.94-6,33.4,3.65s15.26,19.88,8.4,33.76c-4.73,9.57-8.59,19.56-12.83,29.36-4.56,2.82-6.87.37-8.52-3.62-.19-4-.64-8.11.18-12.06,1.09-5.25,3.87-11.94-4.16-12.69-7.84-.74-8.92,5.88-8.47,13.33-.49,1.62,4.25-.65,1.56-.65-1.38,0-1.58-.39-1.48-1.28.57-5.09,2.37-9.92,8.18-9.3,5.3.57,4.87,5.71,4.09,9.66-1.11,5.65,2.31,12.34-3.76,16.9A13.59,13.59,0,0,1,615.85,340.3Z" transform="translate(-61.38 -270.75)"/><path class="cls-15" d="M679.84,372.1c18.17-17.58,41-10.87,62.26-11.53,8.48-.26,17.11,2.22,25.55,4,6.17,1.29,11.29,4.8,3.64,10.22-12.46,8.85-8.24,11.72,3.67,13,6.35.68,16.51-1.65,16.38,6.8-.14,9.64-10.51,4-16.3,5.47-2.44.6-4.94.93-7.42,1.39-1,9.44,14,5.71,11.12,13.87s-11.48,4.34-17.76,5.09c-27.41,2.66-32-1.34-33.62-27.1-.54-8.66,7.71-9.23,11.43-14.14C719.2,373,698.26,383.22,679.84,372.1Z" transform="translate(-61.38 -270.75)"/><path class="cls-16" d="M182.29,683c14.52,7.47,30.57-.15,45.36,4.62,5.32,2.51,10.41,5.24,11.93,11.64-4.17,27.84,18.58,24,34,28.81,2.4,7.43-2.66,10.88-7.6,14.44-8.85,4.41-18.07,3.93-27.41,2-44.79,1.54-89.58,1-134.37,1.08-10,0-20.14.55-29.22-5,2.2-9.37,10.25-3.07,15-5.6,39.69.3,79.39.27,119.08,1,16.86.32,22.68-8.39,22.95-23.53.29-16.13-9.62-20.92-23.42-20.9-43.68.05-87.35.31-131,.48-.08-10,7.46-4.46,11.35-5,7.15-1,14.52-.62,21.8-.81a2.07,2.07,0,0,1,3.32.12C136.78,685,159.92,691.7,182.29,683Z" transform="translate(-61.38 -270.75)"/><path class="cls-17" d="M82.46,771.91c21.44-.17,43,1,64.28-1.12,9.52-.95,11.24,4.54,15.4,9.09,6.93,5.41,8.25,12.26,5.2,20.24-29.71,7-59.46,6.38-89.24.36C80.49,791.1,83.34,781.79,82.46,771.91Z" transform="translate(-61.38 -270.75)"/><path class="cls-18" d="M239.91,360.79l-22.22-1.37c10.1-11.56,1.45-32.71,24.11-34.69,1.6-.14,2.54-8.27,3.72-12.7,3.28-12.33,5.61-25.59,22.52-26s19.54,13.05,23.43,25.08c-21.33,8.53-25.84,33.19-43.47,45.37C245.39,358.3,243.75,361.44,239.91,360.79Z" transform="translate(-61.38 -270.75)"/><path class="cls-19" d="M519.35,800.31c.25,2.43.49,4.86.75,7.28l-183.65.06c-3.5-8.08-.77-13.73,6.82-17.5,56.88-2.19,114.06,4,173.52-3.88C519.81,788.33,513.82,796.27,519.35,800.31Z" transform="translate(-61.38 -270.75)"/><path class="cls-20" d="M687.71,433.08c-11.9-18.56-31.94-24.46-50.59-32.51l31.57-9c8.1-12.38,18.89-7.06,29.28-4.47,2.81,1.86,6.83,4.27,6.74,7.05-.76,23.64,17.9,21.2,32.13,23.94,7.11,1.37,14.86-.22,20.34,6.23l-24.55,11.57C717.47,437.91,702.17,442.21,687.71,433.08Z" transform="translate(-61.38 -270.75)"/><path class="cls-21" d="M757.18,424.36c-12.8-4.44-26.08-3.85-39.35-4.1-15.33-.3-15.74-1-13.67-16.68.93-7-8.36-8.64-7.42-15.38-.86-10.28-15.85-5.21-16.76-15.44l-.13-.67c18.69.13,37.38.11,56.07.47,5.9.11,14.06.23,14.82,7.07,1,8.8-6.75,7.41-12.89,7-6-.41-10.33,5.62-5,7.44,17.28,5.86,6.5,12.43,0,19.52,10,5,20.57.41,28.11,6.81Z" transform="translate(-61.38 -270.75)"/><path class="cls-22" d="M539,768.52c14.9.44,30.19-4.38,44.56,3.27,3.94,3.45,5.08,8.05,5.39,13,.15,8.36,1.58,17.11-6.71,23-16.9-1.82-34.42,5.26-50.85-3.5C537.72,793.2,526.18,778.28,539,768.52Z" transform="translate(-61.38 -270.75)"/><path class="cls-23" d="M582.2,807.81q1-11.88,2-23.76c19.46-10.91,66.4-8.29,81.47,4.52a18.65,18.65,0,0,1,2.38,8.65,16.63,16.63,0,0,1-1.29,5.77c-1.63,2.69-4.51,3.65-7.07,5.06Z" transform="translate(-61.38 -270.75)"/><path class="cls-24" d="M114,686.42l-1.68.1-1.65-.22-3.59-3.41c-1.24-15.92-.34-32.64-16.21-43.06-2.27-15.7,6.82-9.56,14.16-7.05,3.74-4.82.54-10.15,1.12-15.12.77-6.67.63-15.46,9.17-15,7.09.39,9.47,8.32,9.41,15.49,0,6.49-9.34,17.68,9.14,13.91,5.57-1.14,5.31,8.82,3.07,14.9A137.28,137.28,0,0,1,114,686.42Z" transform="translate(-61.38 -270.75)"/><path class="cls-25" d="M914.85,646.67c5.71-1.54,9.1-5.26,8.23-11.15-2.28-15.44,6.57-7.15,12.16-5.94,18.56,10.52,20.37,28.11,19.72,46.73-3.52,3.73-3.07,10.28-8.83,12.43-13.72,1.42-25.79-1.16-33.68-13.89a23,23,0,0,1-1.08-13.36C912.92,656.65,912.09,651.23,914.85,646.67Z" transform="translate(-61.38 -270.75)"/><path class="cls-26" d="M306.63,335.6c8.68,13.7,5.07,29.14,6.2,43.91H255.57c4.15-5.94,13.82-7.16,12.22-15.76C269.09,343.54,285.58,331.58,306.63,335.6Z" transform="translate(-61.38 -270.75)"/><path class="cls-27" d="M306.63,335.6c-17.8,2.69-32,10.34-38.84,28.15-9.37-.26-19.17,3.5-27.88-3,5.78-17.06,26.22-23.28,30.27-42.57,1.6-7.61,13-7.72,21.29-7.09l8.11,4.89Q303.09,325.82,306.63,335.6Z" transform="translate(-61.38 -270.75)"/><path class="cls-28" d="M659.66,808.05l4.45-3.63c16.57-8.12,21.17-27.12,34.62-38.11,5.87-.9,11.71-1.48,17.32,1.3,5.57,3.51,11.66,6,17.52,8.92,10.17,5.09,15.37,12.38,7.78,23.58-2.67-1.71-7.34-5.28-7.73-4.87C712.13,818.36,684.45,805,659.66,808.05Z" transform="translate(-61.38 -270.75)"/><path class="cls-29" d="M210.81,603.13c-10.86,17.33-8.92,38.72-17.92,56.61-2.81,5.58-1.3,16.79-13.52,11.37,2.68-15,3.78-30.45,8.42-44.77,6.16-19-4.16-38.2,2.84-56.72,9.37-5.51,17-2.82,23.49,5C218.15,584.74,219.65,594.54,210.81,603.13Z" transform="translate(-61.38 -270.75)"/><path class="cls-30" d="M687.71,433.08c15,.81,30.26-2.94,44.93,2.85-2.91,12.12,9.91,4.8,12.72,10.93-1.17.65-3.38,1.09-3.77,2.19-8.77,24.66-31.13,11.09-46.62,16.72a19.22,19.22,0,0,0-3.34,2.14Q689.65,450.5,687.71,433.08Z" transform="translate(-61.38 -270.75)"/><path class="cls-31" d="M78.1,800.48q40.58.57,81.16,1.1c4.13,0,7.81-1.24,10-5.17a12.07,12.07,0,0,1,5.7-1.65c20.75.23,41.49.72,62.23,1.69a21.72,21.72,0,0,1,10.42,5.8,4.54,4.54,0,0,1,.3,5.42H61.38C66.12,798.15,73.28,802.66,78.1,800.48Z" transform="translate(-61.38 -270.75)"/><path class="cls-32" d="M211.74,574.12l-21.1-4.5c-1.72-8.79,12.54-13.92,5.48-23.94-4.29-7.81,3.91-11.46,5.72-17.25,5.84-3.85,7.81-12.1,15.56-13.82,8.69,0,3.85,11.16,10.57,12.78,1.66,4.72,4,9.39.88,14.4-8.26,9.85-.6,20.38-1.29,30.55C223,579.29,217.51,577.92,211.74,574.12Z" transform="translate(-61.38 -270.75)"/><path class="cls-33" d="M907.93,739c-2.64-9-1-18.15-.36-27.24,2.17-3.46.7-7.39,1.38-11a6.48,6.48,0,0,1,4.29-3.29c10,1.23,20.3-1.5,30.27,1.43,9.44,14-2.52,26.89-2,40.43Q924.62,752.07,907.93,739Z" transform="translate(-61.38 -270.75)"/><path class="cls-34" d="M247.82,804.23l-7.92-3.34c2-9.1,6.86-16.89,11.5-24.77-.3-22.74-5.1-27.81-28.45-28-53.51-.4-107-.44-160.51-.63,1.11-7.89,10.36-.93,12.54-6.86,51.73,2.48,103.52,6.69,155-2.27,6.57-1.14,9.2,4.85,14.53,4.59,21.23,5.6,19.85,22.81,20.19,39.17a50.66,50.66,0,0,1-6.19,17.5C255.88,803.29,252,804.14,247.82,804.23Z" transform="translate(-61.38 -270.75)"/><path class="cls-35" d="M871.86,488.69l22.34.26c4.42-2.65,8.89-3.79,13.51-.43,2.83,4.7,2.92,9.12-1.34,13.1L798.85,502a7.65,7.65,0,0,1-3.73-5.42c1.66-15.3,14-11.77,23.48-13.38,5.24-.1,11.18-3.21,14.93,3.35C846.09,491.23,859,489.22,871.86,488.69Z" transform="translate(-61.38 -270.75)"/><path class="cls-36" d="M857.41,340.42l11.14,11.65c5.17,8.28-2.8,9.05-6.89,12-12.62,8.74-26.55,1.09-39.81,2.87-6,.8-7.17-6.46-4.77-10.24,5.68-8.92,7.52-21,19.23-25.37C844,332.79,850.22,337.78,857.41,340.42Z" transform="translate(-61.38 -270.75)"/><path class="cls-37" d="M992.44,803c-11.28-7.28-21.37-35.33-16.68-46,4.8-10.88,9.72,2.63,14.77-.76a4.28,4.28,0,0,0,.5-1.16c2.28-8.94-3.9-27,12.63-22.24,13.75,4-2.72,20,2.22,30.23C1006.77,778.19,994.66,788.92,992.44,803Z" transform="translate(-61.38 -270.75)"/><path class="cls-38" d="M833.53,486.55l-11.67,2.17c-5.43-3.36-11.06-6.5-13.54-13a10.26,10.26,0,0,1,1.21-5.4c6.41-6.86,11.18-13.92,10.2-24.4-.84-9.1,1.19-18,14.37-13.56C851.48,455.31,851.28,474,833.53,486.55Z" transform="translate(-61.38 -270.75)"/><path class="cls-39" d="M809.5,473.29a3.11,3.11,0,0,1,1.8,2.1c-5.51,9-15,6.55-23.12,8.13-5.9.38-10.32-2.23-13.73-6.84-.15-.66-.25-1.33-.44-2-7.1-24.07-7.1-24,17-26,3.15-.27,6.18-2.11,9.27-3.23,9.54,4.66,9.21,14.27,11.36,22.64A6.19,6.19,0,0,1,809.5,473.29Z" transform="translate(-61.38 -270.75)"/><path class="cls-40" d="M741.35,800.11c.4-10.9-.65-20.79-15.35-20-9.25.49-10.35-6.63-12.51-12.87,1.5-14.81,9.3-23.09,24.53-23.7,6.17,9.34,2.89,23.39,14.92,29.84a18.65,18.65,0,0,1,4.27,8.23c.78,6.64-1.2,12.69-4,18.57C749.28,801.28,745.29,806.09,741.35,800.11Z" transform="translate(-61.38 -270.75)"/><path class="cls-41" d="M907.93,739l33.61.28c4.85,16.36,9.26,32.85,14.77,49,2.16,6.32,5.24,11.3-4.47,12.73-10.22-3.51-8.55-14.18-12.89-21.24-7.21-8.38-6.86-22.94-21.07-25.53-5.2.6-8.49-1.93-10.56-6.44Q907.64,743.39,907.93,739Z" transform="translate(-61.38 -270.75)"/><path class="cls-42" d="M341.24,792.48q-2.39,7.59-4.78,15.17l-5.22.29c-5.27-3.78-12.25-2.73-17.67-6.18-6.64-4.16-9.72-9.78-7.25-17.67,7.34-11.12,17.11-17.86,31-17.14,4.56,3.44,6.61,8.26,7.59,13.68C345.28,785.07,344.75,789.24,341.24,792.48Z" transform="translate(-61.38 -270.75)"/><path class="cls-43" d="M992.44,803c0-9.28-1.35-18.82.44-27.73,1.08-5.39,15.48-.37,13-12.18,3.06-1.9,7.94-7.34,9.43-2.66,2.69,8.41,4.84,19,1.9,26.69C1013.62,796.46,1005.3,804.92,992.44,803Z" transform="translate(-61.38 -270.75)"/><path class="cls-44" d="M90.91,639.83C104.73,642,111.05,652,112.79,664c.86,5.9-3.61,12.57-5.67,18.89C91.27,678.5,81.56,671.33,91.7,653,93.5,649.77,91.28,644.29,90.91,639.83Z" transform="translate(-61.38 -270.75)"/><path class="cls-45" d="M809.5,473.29c-.18-1.32-.37-2.65-.55-4-3.05-11-1.72-22.48-3.33-33.64,7.72-16.52,17.68-13.55,28.48-3.27-9.85-1.78-12.13,3.69-9.86,11.53C828.5,458.61,823.29,468,809.5,473.29Z" transform="translate(-61.38 -270.75)"/><path class="cls-46" d="M753.26,800.18q0-10.29.1-20.59c13.43-5.64,26.64-14.52,41.22-2.7-2.75,3.79-6,7.56-4.17,12.67,1.88,5.3.38,8.83-4.35,11.68-5.44,3.27-8.75.45-11.75-3.55C765.83,786.39,759.78,795.17,753.26,800.18Z" transform="translate(-61.38 -270.75)"/><path class="cls-47" d="M316.08,799.34c5.62,1.88,11.4,3.48,15.18,8.6l-83.35-.27a21.94,21.94,0,0,0-.09-3.44c1.71-3.22,4.64-4,8-4C275.76,790.49,295.86,790.84,316.08,799.34Z" transform="translate(-61.38 -270.75)"/><path class="cls-48" d="M943.51,698.86c-10.54,6.24-21.26,4.38-32,.68a8.1,8.1,0,0,1-3.13-5.24c.2-7.41.55-14.77,7.19-19.85,8.38,9.38,19.68,11.11,31.32,12,2.55,2.72,2.84,5.54.43,8.51Z" transform="translate(-61.38 -270.75)"/><path class="cls-49" d="M680,372.76c4.71,4.84,11.24,2,16.52,3.91,9.12,3.25,7.23,7.52.24,11.52-9,4-19.4-3.41-28,3.42-1.24-7.14-15.06-5.61-11.78-13.72C661.15,367.43,672,373.94,680,372.76Z" transform="translate(-61.38 -270.75)"/><path class="cls-50" d="M774.45,476.68l11,3.64c4.87,2.66,6.72,7.22,7.83,12.27.42,9.9,1,19.82-1.33,29.62-3,5.47-5.7,11.67-13.93,7.54l-1.36-.7C778.84,511.47,769.94,494.36,774.45,476.68Z" transform="translate(-61.38 -270.75)"/><path class="cls-51" d="M636.05,339.53l6.75,2.19c2,11.74-.5,23.33-13.69,23.55-16.56.28-14.59-13.47-13.26-25l16.1-1C633.43,337.47,634.79,337.55,636.05,339.53Z" transform="translate(-61.38 -270.75)"/><path class="cls-52" d="M794.58,776.89c-14.05-3.83-27.27,5.07-41.22,2.71l-4.58-3.81c-2-3.71-3.58-7.51-2.46-11.86,3.29-7.42,8.34-6.82,13.87-2.82a25.33,25.33,0,0,0,14.23,5.1c4.08.25,8.15.08,12.22.14q14.19-.24,28.34.09c6.22,0,12.45.15,18.55,1.64a12.52,12.52,0,0,1,5.22,3.15,5.79,5.79,0,0,1-.41,5.81C823.76,774,809.16,777.09,794.58,776.89Z" transform="translate(-61.38 -270.75)"/><path class="cls-53" d="M838.34,777c.41-1.73.81-3.46,1.22-5.19,6.3-4.84,12.56-2.93,18.81.12,1.14,9.68-1.41,18.84-4,28-4.19,3.78-8.31,3.38-12.37-.22C842.25,791.94,843.09,784,838.34,777Z" transform="translate(-61.38 -270.75)"/><path class="cls-54" d="M171.06,391.92c1.39,11.18-6,19.76-9.13,29.55-3.05,9.49-10.1,5.16-16,2.18C141.86,403.21,155.91,397.13,171.06,391.92Z" transform="translate(-61.38 -270.75)"/><path class="cls-55" d="M217.4,514.61c-1.14,8.18-2.59,16.09-13.52,16-3.76.37-5.59-1.41-5.65-5.12-1-5.15,4.56-8,4.85-12,.65-8.88,5.38-14.78,13.13-13.15C227.12,502.66,208,510.37,217.4,514.61Z" transform="translate(-61.38 -270.75)"/><path class="cls-56" d="M861.66,364.11l6.9-12c15.2-7.28,12.49,8.72,20.59,15.49C878.2,367,869.37,373,861.66,364.11Z" transform="translate(-61.38 -270.75)"/><path class="cls-57" d="M947.3,694.93c-.14-2.84-.28-5.67-.43-8.51A13.81,13.81,0,0,1,955,676.31c2.65,11.4,8.85,22,8.37,34.55C952.84,710.08,955.31,697.31,947.3,694.93Z" transform="translate(-61.38 -270.75)"/><path class="cls-58" d="M171.06,391.92c-10.5,8.89-23.15,16.09-25.12,31.73-7.22,3.7-7.22,3.7-7.76-11.12,1-13.14,14.42-13.1,21.24-20.07C163.29,392,166.79,383.82,171.06,391.92Z" transform="translate(-61.38 -270.75)"/><path class="cls-59" d="M857.41,340.42c-12.06,8.7-15.22-3.38-21.11-9.05C850.38,321.7,851.72,322.28,857.41,340.42Z" transform="translate(-61.38 -270.75)"/><path class="cls-60" d="M198.23,525.5l5.65,5.12-7.77,15.06c-13.7,10.15-18.1-3-25.7-11.42C183.48,541.15,192.83,538.57,198.23,525.5Z" transform="translate(-61.38 -270.75)"/><path class="cls-61" d="M228.85,541.79q-.43-7.2-.88-14.4c7.38,1.07,9.34,17.72,20.75,7.22.94.09,1.87.14,2.8.16,4.57,4.36,5.07,9.44,1.2,14.15-3.51,4.28-8,4.06-12.1.24Z" transform="translate(-61.38 -270.75)"/><path class="cls-62" d="M942.63,778c6.49,6.3,4.65,15.93,9.21,23-11.79,7-23.68,12.69-37,3.47l.33-.06a15.35,15.35,0,0,1,7.15-4.41c16.37.26,13.41-13.25,16.22-22.67.15-.51,1-.88,1.57-1.16C941.17,775.66,942,776.32,942.63,778Z" transform="translate(-61.38 -270.75)"/><path class="cls-63" d="M842,799.75l12.37.22c9.11,8,20.11,2.44,30.09,4.2,7.32,1.3,15.77-3.55,21.94,4-15.49.09-31,.32-46.46.22C852.78,808.34,844.55,809.8,842,799.75Z" transform="translate(-61.38 -270.75)"/><path class="cls-64" d="M159.42,392.46l-21.23,20.07c-6.15-3.84-15.44-7.61-1.24-13.08C144.25,396.63,151.92,394.76,159.42,392.46Z" transform="translate(-61.38 -270.75)"/><path class="cls-65" d="M968.21,533.51c-14.12,4-6.57-4.43-4.16-8,5-7.38,17.11-7.66,17.42-20.13,5.5,4.92.81,8.79,2.25,12.25C976.26,520.69,972.77,527.63,968.21,533.51Z" transform="translate(-61.38 -270.75)"/><path class="cls-66" d="M805.62,435.67c7.33,10.59,3.7,22.27,3.33,33.63q-4.34-11.91-8.66-23.83Z" transform="translate(-61.38 -270.75)"/><path class="cls-67" d="M539,768.52c-8.45,10.68,1.06,25.17-7.61,35.79q-.32-17.84-.64-35.69Z" transform="translate(-61.38 -270.75)"/><path class="cls-68" d="M704.48,591.92l4.32,10.29c3.28,27.13,3.29,27.22-25.53,29.54-7.85.63-15.59,2.71-23.58,2-24.05-4.62-48.21-.59-72.29-1-51.63-1-103.28.83-154.9-1-8.9-.32-17.38.89-25.05,5.64a25.11,25.11,0,0,1-4.73,3.8c-14.37,4.09-50.11-2.57-57.79-10.75q14.38-22,28.75-44c2.86-20.06,12.84-30.8,31.06-33.44,3.34,6.33,7.47,8.53,15.65,8.38,73.33-1.32,146.71-4.31,220,1.59,12.4,1,23.64-5.33,35.88-4.56Z" transform="translate(-61.38 -270.75)"/><path class="cls-69" d="M676.25,558.35c-10.91,10.76-24.82,12.4-38.79,10.93-71.78-7.58-143.73-1.62-215.58-3-8.16-.15-16.4,3.68-23.57,5.42-7.62-8.88,13.74-9.83,2.62-18.41a8,8,0,0,1-1.58-5.06c3.12-9.71,10.6-16.55,16.19-24.65a11.86,11.86,0,0,1,7-3.86c13.8-16.42,28.81-31,51.45-34.08,10.36,2,17,10.58,26.33,14.5,23.66,9.94,46.87,10.95,69.82-2.23,8.08-4.64,15.4-11.12,25.4-11.63C634.78,496.53,655.77,527.16,676.25,558.35Z" transform="translate(-61.38 -270.75)"/><path class="cls-70" d="M417.38,526,400.9,550.14c-12.28-.34-12.81-11.95-18.21-18.92-2.58-3.32-5.32-10.73-10.2-4.43-14.89,19.25-18.37,2.69-24.36-6.92-8.9-13.9-16.42-5.91-24,1.49-4.56-4.76-9.65-9.13-13.52-14.39-3.42-4.66-2.36-10.07.49-15.16s6.57-5.44,11.8-3.8c5.64,1.75,13.06,4.11,16.48-2.11,4.25-7.76-4-11.73-8.36-16.27-7.7-8-18.42-13.28-21.75-25.05-.14-2-.69-4-.38-5.88,1.41-8.52-4.82-19.8,5.51-25,9.47-4.74,19.13-.68,27.1,6.18,7.45,10.58,5.81,22.19,4.67,33.09,5.56-4.85-6.54-17.2,6.8-20.28,2.89,8.84,5.83,17.66,8.64,26.53,1.26,4,2.85,7.79,7.64,8s7-3.29,8-7.45c5.12-21.16,15.73-17.51,28-6.25-.51,13.79,1.42,27,8.85,39C423,502.93,416.84,514.8,417.38,526Z" transform="translate(-61.38 -270.75)"/><path class="cls-71" d="M515.37,452.42c-16.83-12.42-20.29-30.64-25.91-49.7-7.64-25.93,17.54-31.33,22.2-49.23,11.71,13.05,26,17.79,41.4,19.26,14,1.32,20.55,5.66,19.48,22.11-1.39,21.25-7.37,39.12-22.63,53.85C537.63,464.07,531.1,464.77,515.37,452.42Z" transform="translate(-61.38 -270.75)"/><path class="cls-72" d="M595.59,486.27c-46.36,36.75-86,36.54-121.54-.64Q492.52,475,511,464.38c1.69-1.1,4.25-2.38,5.43-1.29,12.28,11.4,23.23,4.65,34.25-2.12Z" transform="translate(-61.38 -270.75)"/><path class="cls-73" d="M550.68,461c-11.09,21.17-15.25,21.53-39.69,3.41l4.38-12c12.24,5.52,23.83,4.94,34.55-3.71Q550.29,454.85,550.68,461Z" transform="translate(-61.38 -270.75)"/><path class="cls-74" d="M417.38,526c-7.17-10.57,1.58-22.7-3.25-33.5,12.09,6.18,5.46,18.19,8.46,27.19Q420,522.88,417.38,526Z" transform="translate(-61.38 -270.75)"/><path class="cls-75" d="M778,529.75c6.64.87,7.36-5.46,10.61-8.71,7.56-.9,7.47,3.44,6,8.74-6.68,5.35-2.88,11.12-1.28,17.32,4.43,17.1,8.12,34.4,12.11,51.62,2.84,8.15,5.61,16.34,9,24.29-1.11,20,9.17,39,5.46,59.19-2,3-5,4.42-8.34,5.28a80,80,0,0,1-16.51,1c-2.21.08-4.41.05-6.61,0-6.74-.12-13.51-.12-19.72-3.38-7.17-5.07-10.61-12.27-11.82-20.74,1-36.57,12.49-71.51,16.6-107.6Q775.76,543.27,778,529.75Z" transform="translate(-61.38 -270.75)"/><path class="cls-76" d="M809.63,621.54c-2.85-7.35-4.94-14.83-4.19-22.83,6.17,7.66,11.75,17.23,19.55.79,2.39-5,5.83-6.51,12.22.38,7,7.5,19,7.12,25.15-5.49,4.18-3.72,8.3-3.51,12.37.18,2.15,4.55-18.62,18.35,6,14.4,4.12-.66,9.4,5.91,14.14,9.14-4.56,6,4.93,12.51-.65,18.49-25.34,9.88-51.07,9.63-77,2.86C809.84,635.52,814,626.74,809.63,621.54Z" transform="translate(-61.38 -270.75)"/><path class="cls-77" d="M906.57,489.53,894.2,489c8-16.07,21.48-17.74,37-13.95,17.89,4.37,26.3,17.09,28,34.16,1.63,16.15-5.1,28.68-20.79,34.82-6.72,2.63-14,3.86-21,5.73q-1.44-6-2.89-12a17.57,17.57,0,0,1,8.19-5.29c11.54-3.51,18.68-10.53,16.06-23.26-2.45-11.94-10.47-17.85-22.9-17.21C912.52,492.18,909.33,491.67,906.57,489.53Z" transform="translate(-61.38 -270.75)"/><path class="cls-78" d="M906.57,489.53c11.94-5.12,23.44-5.24,32.16,5.57,6.36,7.88,8.94,16.86,4.95,27.54-5.39,14.4-17.21,14.4-29.14,15.12q-4.08-18.06-8.17-36.14A15.17,15.17,0,0,0,906.57,489.53Z" transform="translate(-61.38 -270.75)"/><path class="cls-79" d="M850,566.11c-7.39-8.42-3.69-16.38,2.45-22.66,4.43-4.53,10.62-7.85,18.05-4.5,10.08,4.55,13.22,12.26,11.54,22.61C871.55,564.65,861.36,569.61,850,566.11Z" transform="translate(-61.38 -270.75)"/><path class="cls-80" d="M850,566.11c10.36-3.73,20.41-9.75,32-4.55l-6.72,18.92c-5.27,7-11.2,5.54-17.34,1.35C855.47,576.5,849.76,572.81,850,566.11Z" transform="translate(-61.38 -270.75)"/><path class="cls-81" d="M892.85,634.45c1.68-5.32-7.87-12.06,2.06-16.34,6.3,9.77,8.36,22.48,19.94,28.56,2.18,5.2,6.92,10.39.14,15.68a13.7,13.7,0,0,1-6.33-.32C898,655.93,888.31,649.27,892.85,634.45Z" transform="translate(-61.38 -270.75)"/><path class="cls-82" d="M794.61,529.78c-1-3.57-1.63-7.43-6-8.74q.63-13.75,1.29-27.51c4.63-2.73,5.63,1.23,7.29,4,.54,1.5,1.09,3,1.63,4.51C801.44,511.87,807.57,522.28,794.61,529.78Z" transform="translate(-61.38 -270.75)"/><path class="cls-83" d="M858,581.83l17.34-1.35c3.28,4.83,0,9.41-.56,14.09l-12.37-.18Z" transform="translate(-61.38 -270.75)"/><path class="cls-84" d="M344.93,630.43c8.59,4,16.28,10.53,26.66,1.89,4.72-3.92,13.16-3.82,15.79,5s6.69,1.46,10.09,1.31c4.95,5.08,5.37,11.15,4,17.64-2.77,9.64-9,17.38-14.47,25.52-4.93,7.39-8.19,14.93-5.51,24,1.39,16.18-1.78,31-13.07,43.3-12,2.4-23.37-3.18-35.24-2.85-4.93-1.87-9.14-4.44-10-10.28,5.45-16.5,7.39-32.5-6.77-46.18-2.54-8.09-8.61-16.56,2.39-23.22Z" transform="translate(-61.38 -270.75)"/><path class="cls-85" d="M240.62,549.16c13,2.33,13.06-5.21,10.9-14.39l4.26-3.54c6.28,16,23.73,25.56,25.21,44.25-5.47,17.73-8.67,35.3,3.84,51.76,2.31,21.13.91,41.75-8.28,61.33-6.16,3.24-11.93,3.49-16.95-2.14C242.49,642.16,238.34,596.1,240.62,549.16Z" transform="translate(-61.38 -270.75)"/><path class="cls-86" d="M352.67,517.45c4.07,4.17,2.81,11.6,8.54,14.65,4.06-1,5.71-3.4,6.06-7.05.46-4.72,1.26-10.32,7.1-9.93,3.08.21,6.14,4.28,8.76,7,7.76,8.13,7.75,21.24,17.78,28a8,8,0,0,1,0,3.15c-10.51,9.86-20.21,20.38-27.25,33.1-11.33-6.65-23.19-12.58-33.81-20.22-6.62-4.77-13.24-11.62,1.15-17,12-4.53,1-10.29-.4-15.48C345.29,528.71,343.82,519.24,352.67,517.45Z" transform="translate(-61.38 -270.75)"/><path class="cls-87" d="M275.53,687.16c1.79-21.34,6.1-42.5,4.26-64.08,3.52-15.11,17.84-10.24,27.15-14.69a8.62,8.62,0,0,1,5.82,1.82l.69,6.57c1.43,9,1.2,16.83-3.66,26A63.35,63.35,0,0,0,303,679.28c-4.49,16.2-12.51,31.29-14.93,48.14-1.83,6-2.6,12.35-7.1,17.2-7.17,3.14-12.63,1-16.65-5.46,3.79-3,9.95-4.64,7.1-11.71-5.79-6.74-4.57-14.89-4.67-22.79C267.13,697.55,269.09,691.22,275.53,687.16Z" transform="translate(-61.38 -270.75)"/><path class="cls-88" d="M300.52,678c-11.88-15.76,1.87-30.24,7.24-41.18,3.41-7,1.13-14.49,5.69-20.05,5.89,16.12,1.33,33.37,5.33,49.71-2.34,7.73-.19,15.08,1.94,22.43,6.45,13.1,8.08,26.66,3.84,40.74-1.25,11-10.95,2.23-15.18,6.39-8.31-6.77-5-17.46-8.82-25.76C297.42,699.54,301.34,688.78,300.52,678Z" transform="translate(-61.38 -270.75)"/><path class="cls-89" d="M301,573.68l8.35,11.07c1.48,8.94,14.54,20.2-5,24.93-9.12.9-20.26,5.3-25.35-5.43-5.39-11.38-.27-22.1,8.47-30.76C292,570.66,296.55,570.51,301,573.68Z" transform="translate(-61.38 -270.75)"/><path class="cls-90" d="M288.59,573.47a85,85,0,0,0-3.35,9.15c-6,24.17-5.95,24.18,19.35,23.49,1.33,1.64,4.13,2.06,4.06,4.87-8.47,6.77-20.85,4.23-28.86,12.1-14.51-16.27-14.25-26.49,1.2-47.6l7.47-5.7a2.25,2.25,0,0,1,1,2.43C289.17,573.05,288.89,573.47,288.59,573.47Z" transform="translate(-61.38 -270.75)"/><path class="cls-91" d="M352.67,517.45c-5,4.66,1.53,17.9-12,16.17-5.38-4.24-14.63-3.29-16.48-12.26,1.33-5.8-3.63-14.7,6.22-16.36C340.43,503.3,348.46,507.53,352.67,517.45Z" transform="translate(-61.38 -270.75)"/><path class="cls-92" d="M308.65,611l-4.06-4.86c16.51-3.78-.85-15.15,4.78-21.36,10.72,7.3,10.72,7.3,18.77-6.87,7.18,17.86,1.38,30.05-15.38,32.32Z" transform="translate(-61.38 -270.75)"/><path class="cls-93" d="M288.59,573.47c0-1.23-.06-2.46-.13-3.69-8.89-17.64-.06-21.56,19.57-20.57-12.53,7.46-2.67,16.87-7,24.47Z" transform="translate(-61.38 -270.75)"/><path class="cls-94" d="M353,432.71c-8.73,9.55-.51,21.87-5.9,33.86-13.81-15,2.88-32.59-5.58-46.67C349.13,420.78,350.63,427.13,353,432.71Z" transform="translate(-61.38 -270.75)"/><path class="cls-95" d="M165.08,714.08c7.47.73,6.62,5.81,6.63,10.24,0,4.82-2.36,6.49-7.3,6.26-7.75-.36-5-5.94-5.27-9.79C158.82,716.36,160.32,713.06,165.08,714.08Z" transform="translate(-61.38 -270.75)"/><path class="cls-96" d="M656.29,743.59a104,104,0,0,1-31.58,4.24c-71-.63-142-.78-212.94-1.51-5.07-.06-6.63,3.85-10.23,5-7.16-7.22-4.9-17-6.91-25.6.38-6.57,3.47-11.3,9.49-14.06,32.44-4.76,65-3,97.47-1.21a36.89,36.89,0,0,1,13,5.24c17.3,11.31,31.85,3.85,46.06-6.44,19.42-.15,38.83.62,58.26.53,4.63,0,9.8,2.16,13.79-.65,7.13-5,12.93-12.57,20.59,0C660.17,720.59,671.6,730.63,656.29,743.59Z" transform="translate(-61.38 -270.75)"/><path class="cls-97" d="M656.29,743.59c12.1-16.69-10.76-23.9-10.24-34.05-28.07,11-57.32,6.92-86.64,1.81-18.55-10.44-36.62-14.58-53,4l-104.94-.11c-5.95-6.45-5.2-13.6-2.29-21,6.28-10.56,16.61-13,27.67-13,27.43,0,55-2.27,82.22,2.56,18.17,3.23,36.16-.69,54-1.91,32.8-2.23,65.47,3.14,98.13-.3,9.12,2.77,6.43,10.37,6.15,16.44-.4,8.8,2.15,17,4,25.31.44,7.91-.53,15.32-7.65,20.41Z" transform="translate(-61.38 -270.75)"/><path class="cls-98" d="M341.24,792.48l-.3-12.82c5.75-6,13.3-5.61,20.66-5.63,44.94-.09,89.88,0,134.82,0,8.15,0,16.18.15,22.62,6.22q.15,10.06.31,20.11c-5.52,5-1.24-24.17-11.56-3.33-.33.67-3.7-.27-5.65-.28-47.79-.18-95.58-.4-143.37-.41A38.75,38.75,0,0,1,341.24,792.48Z" transform="translate(-61.38 -270.75)"/><path class="cls-99" d="M519,780.2l-178.1-.54q-2.25-5.56-4.48-11.13c11.24-10.48,25-5.77,37.92-6.38,7,0,14-.42,20.83,1.23a26,26,0,0,1,6.16,3.1c34.49.46,69,1,103.46,1.29C513.55,767.84,521.43,767.89,519,780.2Z" transform="translate(-61.38 -270.75)"/><path class="cls-100" d="M663.77,743.73l4.05-20.16c-2.57-11,2.2-18,12.1-22.24,11.19-.82,13.19,6.91,13.7,15.35.6,9.91,1.28,19.83,1.74,29.76-3,21.84-6.85,43.26-30.22,53.64l-1.47-8c-1.82-8-6.51-16-.23-24.14Z" transform="translate(-61.38 -270.75)"/><path class="cls-101" d="M663.44,767.9q.12,12.06.23,24.14c-5-7.83-12.63-8.24-21-8.08-19.51.36-39,.1-58.54.09q-.31-6.12-.65-12.26C609.69,760.81,636.75,768.17,663.44,767.9Z" transform="translate(-61.38 -270.75)"/><path class="cls-102" d="M401.37,766.48l-1.39.27-1.39-.2c-10.15-10.46-6.53-22.73-4.58-34.79a9.8,9.8,0,0,1,4.41-4.94c5.21,7.65,1.43,16.45,3.12,24.54Q401.45,758.92,401.37,766.48Z" transform="translate(-61.38 -270.75)"/><path class="cls-103" d="M858.37,772c-6.31,4.29-12.55-.89-18.82-.12l-1.13-.09.13-1.13c-3.53-2.62-5-6.36-5.81-10.51-3.48-10.74-3-22.29-6.78-33-1.82-6.44-4.18-12.8-2.73-19.7,14.2-13.66,32.7-13.66,47.22,0Q864.41,739.68,858.37,772Z" transform="translate(-61.38 -270.75)"/><path class="cls-104" d="M870.45,707.38c-15.39-5.48-31-13.18-44.56,3.62-13.72-6.12-12.86-16.74-8.75-28.36.25-20.7-10-40.11-7.51-61.09L818,638.61c9.76,11.66,12.37,26.62,18.59,39.91,5.84,12.5,17.45,9.77,27.8,10.81,15.56,1.56,32.12-4.61,46.55,5.85.19,1.45.37,2.9.55,4.36l-1.19-.37c-11.6,5.28-24.31-.89-36,3.47Z" transform="translate(-61.38 -270.75)"/><path class="cls-105" d="M923.13,803.29l-7.94,1.11c1.26-19.42-7-37.51-7.87-56.62l12.06,4C933.4,768,931.87,785.38,923.13,803.29Z" transform="translate(-61.38 -270.75)"/><path class="cls-106" d="M874.3,702.64c11.44-6.94,24-2,36-3.47.32,4.47,1.46,9.11-2.73,12.59C900.47,694.15,884.84,707.7,874.3,702.64Z" transform="translate(-61.38 -270.75)"/><path class="cls-107" d="M692,747.16c-4.11-9.43-3.16-19.46-3-29.29.08-7.15-.3-13.08-9.47-13.19-7.81-12.07-12-25.89-18.7-38.51a29.21,29.21,0,0,1-1.48-6.39c.21-9.95-3.12-20.47,4.69-29.18,13.17-7.82,28.71-1.06,43-7.59,5.86-5.75-15.4-15.6,1.84-20.8q19.2,24.6,38.42,49.19c10.1,1.13,10.27,10,13.08,16.79l9.8,15c4.44,5.44,4.86,11.85,4.41,18.46-1.06,9.76-4.89,18.1-12.62,24.43-9.24,5.08-14.52,15.71-25.52,18.39-9.16,6.07-16.2,14.27-22.89,22.8-4.41,2.18-8.84,7.14-13.21-.09C695.84,761.19,696.56,753.08,692,747.16Z" transform="translate(-61.38 -270.75)"/><path class="cls-108" d="M760.3,668.19,747.22,651.4q13.14-47.28,26.29-94.59C772.41,594.32,766.18,631.23,760.3,668.19Z" transform="translate(-61.38 -270.75)"/><path class="cls-109" d="M251.4,776.12c2.57,11.23-2.84,18.75-11.5,24.77-23.79,0-47.94,5.68-71.1-4.43,3-7.14,4.69-15,10.93-20.37C203.62,779.19,227.51,767.86,251.4,776.12Z" transform="translate(-61.38 -270.75)"/><path class="cls-110" d="M179.73,776.09c-1.8,7.78,4.72,20-10.93,20.37l.46-.05c-12.68-1.07-3.68-11.47-7.12-16.52C166.06,769.6,173,773.36,179.73,776.09Z" transform="translate(-61.38 -270.75)"/><path class="cls-111" d="M211.74,574.12l15.82-1.77a416.85,416.85,0,0,1-8.5,102.39c-10.52-23.17-5.61-47.83-8.25-71.61Z" transform="translate(-61.38 -270.75)"/><path class="cls-112" d="M275.53,687.16q-1.83,7.88-3.67,15.75c-12.29,2.15-24.67,5.19-35.68-4q-4.27-5.64-8.53-11.29l32-1.19Z" transform="translate(-61.38 -270.75)"/><path class="cls-113" d="M636.05,339.53l-4.1-.23V318.13c-10,1.62-6.35,9.11-9.35,13.1l-2.38-1.5c4.24-6.55-13.41-10.92-2.39-16.78,5-2.65,9.52-11.11,19.76-2.82s.58,10.6-.26,15.63C636.57,330.3,636.45,334.94,636.05,339.53Z" transform="translate(-61.38 -270.75)"/><path class="cls-114" d="M378.25,767.51l-41.79,1-27.87,15.16c-16.08,8.4-32.18,13.15-48.39.29-.77-15.37-.56-31.12-15.67-41,5.7-5.93,14.08,2.1,19.79-3.79L280,743.4c9.31-7.06,19.69-6.21,30.24-4.12,6.84-.2,13.43,1.59,20.12,2.62,11.66.09,23.79-2.56,34,5.9C373.23,751.4,382.1,755,378.25,767.51Z" transform="translate(-61.38 -270.75)"/><path class="cls-115" d="M236.18,698.91c11.81,2,24.33-2.2,35.68,4q-.23,12.27-.44,24.54C229.05,733.79,236.59,725.65,236.18,698.91Z" transform="translate(-61.38 -270.75)"/><path class="cls-116" d="M692,747.16c19.55-.26,5.37,13.4,8.27,20-10.53,13.89-11.69,36.87-36.16,37.25l1-4.35C680.33,785.6,687.93,767.27,692,747.16Z" transform="translate(-61.38 -270.75)"/><path class="cls-106" d="M910.94,695.18c-19.44,0-38.93-.88-58.3.22-13.26.75-20.2-3.88-21.86-16.82,15.1-15.38,34.92-11.54,53.29-12.42,9.49-.45,18.81.56,26.77-5.9,1.38.68,2.76,1.36,4.15,2.07q.28,6.07.56,12.12C913.64,681.28,915.38,688.92,910.94,695.18Z" transform="translate(-61.38 -270.75)"/><path class="cls-117" d="M260.2,784c16.16,4.8,32.26-1.44,48.39-.28-1.48,7.13,3,11.39,7.5,15.65l-60.29.85Q258,792.08,260.2,784Z" transform="translate(-61.38 -270.75)"/><path class="cls-118" d="M797.22,497.49l-7.29-4q-2.23-6.6-4.48-13.21c7.52-7.34,17.69-.83,25.84-4.92,7.92,1,6.79,9.08,10.57,13.32C814.25,493.35,800.54,480.83,797.22,497.49Z" transform="translate(-61.38 -270.75)"/><path class="cls-119" d="M736.37,744.45c5.67-8.09,12.27-15.19,21.2-19.8a6.78,6.78,0,0,1,6.16,4.86,11,11,0,0,1-1.39,8c-6.59,7.63-15.74,14-13.07,26.25q-.24,6-.49,12C734.58,769.33,737,756.27,736.37,744.45Z" transform="translate(-61.38 -270.75)"/><path class="cls-120" d="M923.13,803.29c-.9-17.21,1.6-34.66-3.76-51.54,1.24-4.69,2.47-11,7.58-2.64,5.73,9.31,10.49,19.21,15.68,28.86C942.52,791.34,946.62,807.94,923.13,803.29Z" transform="translate(-61.38 -270.75)"/><path class="cls-121" d="M817.14,682.64c1.74,9.82,3.56,19.61,8.75,28.36,2.67,5,4.83,10.23,4.18,16.14,4.63,10.18-2.29,23.18,7.81,32q.33,5.73.67,11.46l-20.82.84c-11.87-6-22.71-12.55-15.67-28.88,1.37-3.18,2.07-7.41-1.9-8.55-16.84-4.84-15.08-19.77-18.26-32.13-.93-7.59-.77-14.71,7.73-18.27l4,.06c5.51,18.21,10.82,1.29,16.21-.09Z" transform="translate(-61.38 -270.75)"/><path class="cls-122" d="M785.58,703.37c5.62,9.8,1.12,28.16,22.1,25.18,3.26-.46,7.32,6.73,4.29,9.23-18.4,15.16-.46,23.29,5.77,33.7l-32.24-.66c2.51-31.27,1.51-33.07-24.09-43.36l-3.84-2.81c6.86-5.33,10-13,12.92-20.76C775.34,698.58,780.4,699.29,785.58,703.37Z" transform="translate(-61.38 -270.75)"/><path class="cls-123" d="M749.27,763.74c-10.59-15.8.36-22.41,12.22-28.64,11.33-6.13,18.39.14,22.47,9.36,5,11.2,2.5,21.1-9.83,26.63-7.42.58-15.45,3.75-17.84-8.23C755.36,758.22,751.46,761.4,749.27,763.74Z" transform="translate(-61.38 -270.75)"/><path class="cls-124" d="M774.13,771.09c12.87-21.78,9.52-31.33-12.64-36l-.09-7.64c13.05-7.14,20.25,3.18,26.67,10.59,9.35,10.79,5.81,22.41-2.57,32.77Z" transform="translate(-61.38 -270.75)"/><path class="cls-125" d="M397.73,658.64q-.14-10-.26-20a25.55,25.55,0,0,1,2.85-.78c78.21,5.28,156.49,2.17,234.74,1.69,23.55-.14,26.82,2.14,26.46,23.13-11.77,16.05-29.68,14-45.93,14.19-61,.78-122,.47-183,.18-9.37,0-18.76.68-28.13-.2C395.08,673.41,398.34,665.31,397.73,658.64Z" transform="translate(-61.38 -270.75)"/><path class="cls-126" d="M660.29,662.89c2.21-16.27-6.74-18.95-20.47-18.09-75.5,4.74-151.15-.43-226.66,3-9.17.42-7-8.89-12.84-10,3.44-17.13,19-14.43,28.81-13.84,68.29,4.1,136.54,1.55,204.79.7,10.86-.14,20.8.06,30.07,5.92l-.3,32.32C662.55,664.07,661.41,664.12,660.29,662.89Z" transform="translate(-61.38 -270.75)"/><path class="cls-127" d="M394.31,504.51v-47h2v47.2Z" transform="translate(-61.38 -270.75)"/><path class="cls-128" d="M785.58,703.37l-15.08.52q-.21-10.36-.4-20.72l19.53.48C785.47,689.64,785.43,696.49,785.58,703.37Z" transform="translate(-61.38 -270.75)"/><path class="cls-128" d="M809.85,683.62c-.61,1.18-1,2.68-1.9,3.49-4.36,3.81,2,16.23-9.69,13.44-9.77-2.32-2.45-11.31-4.62-16.84Z" transform="translate(-61.38 -270.75)"/><path class="cls-129" d="M910.84,660.26c-.25,7-.8,15.16-10.47,12.93-23.94-5.51-46.7-.09-69.6,5.4-4.49-13.26-12.25-25.46-12.77-40,5.81-11.52,10,2.28,16.31,1.33,19.3-2.9,39.22-1,58.54-5.49C894.16,646.32,904.12,652.16,910.84,660.26Z" transform="translate(-61.38 -270.75)"/><path class="cls-102" d="M397.73,658.64c5.73,4.27,3.13,10.7,4.18,16.18,6.32,6.92,3.76,13.62-.48,20.28l.06,20.12q-1.55,5.79-3.08,11.6l-1.37,1.1c-18.18,1.51-16.11-13.54-19.65-24-9.37-5-4.67-10.63-.64-16.2Z" transform="translate(-61.38 -270.75)"/><path class="cls-130" d="M377.39,703.91c3.62,10.4,10.79,17.89,19.65,24q.76,19.32,1.54,38.64l-20.34,1c-2.57-8-8.61-13.57-13.85-19.71C375.07,735.06,377.72,719.93,377.39,703.91Z" transform="translate(-61.38 -270.75)"/><path class="cls-131" d="M320.23,735.51q.24-23.29.49-46.58c15.26,15.18,16.31,27.81,3.92,47.3A3.62,3.62,0,0,1,320.23,735.51Z" transform="translate(-61.38 -270.75)"/><path class="cls-132" d="M320.23,735.51l4.42.71,5.73,5.67c-5.49,3.05-11.31,1.4-17,1.18-3-1.74-2.78-4.05-1.15-6.6C313.57,725.26,317.45,735,320.23,735.51Z" transform="translate(-61.38 -270.75)"/><path class="cls-133" d="M300.52,678c6.52,10.09,2.8,21.65,4.64,32.42,2,21.75-1.53,24.55-21.26,17C284.48,709.27,290.81,693.08,300.52,678Z" transform="translate(-61.38 -270.75)"/><path class="cls-134" d="M283.9,727.4c12.91,1.65,23-.23,21.26-17,6.58,7.52.17,18.57,7,26,.38,2.21.77,4.41,1.15,6.61L280,743.4C281.79,738.18,278.56,731.75,283.9,727.4Z" transform="translate(-61.38 -270.75)"/><path class="cls-135" d="M506.43,715.33c12.18-24.53,33.59-26.14,53-4C546.07,733.18,528.83,734.47,506.43,715.33Z" transform="translate(-61.38 -270.75)"/><path class="cls-136" d="M401.43,695.1l.48-20.28c4.77-1.76,8-5.37,14.43-5.28,67.84.94,135.7,1.05,203.56,1.35,14,.06,27.4-2.95,40.39-8a27.55,27.55,0,0,0,3.4,0,5.24,5.24,0,0,1,.63,3.81c2.48,5.69,5.15,11.38-1.4,16.29-6.39,7.22-14.54,9.71-23.71,7.8-35.08-7.29-70.05-.85-105.11-.29-32.77.52-65.51-4.92-98.46-3.54C423.58,687.49,411.29,685.84,401.43,695.1Z" transform="translate(-61.38 -270.75)"/><path class="cls-137" d="M662.92,683q.69-8.14,1.4-16.29c6.72,12,17.4,22.35,15.18,37.92-3.36,6.66-11.15,10.55-11.67,18.92C656.57,711.22,662.85,696.74,662.92,683Z" transform="translate(-61.38 -270.75)"/><path class="cls-138" d="M837.88,759.18c-14.67-7.74-5.85-21.2-7.81-32C836.68,736.84,832.78,749.11,837.88,759.18Z" transform="translate(-61.38 -270.75)"/></svg>