<svg id="Layer_1" data-name="Layer 1" xmlns="http://www.w3.org/2000/svg" viewBox="0 0 200 200"><defs><style>.cls-1{fill:#7159c1;}.cls-2{fill:#fff;}</style></defs><g id="Group_1556" data-name="Group 1556"><g id="Group_1494" data-name="Group 1494"><rect id="Rectangle_4" data-name="Rectangle 4" class="cls-1" width="200" height="200" rx="5"/></g><g id="javascript"><path id="Path_3057" data-name="Path 3057" class="cls-1" d="M28,28H172V172H28Z"/><path id="Path_3058" data-name="Path 3058" class="cls-2" d="M62.18,152.8l12.11-7.33c2.34,4.14,4.46,7.64,9.56,7.64,4.88,0,8-1.91,8-9.34V93.22h14.86V144c0,15.4-9,22.41-22.2,22.41-11.89,0-18.8-6.17-22.3-13.6m52.58-1.59,12.1-7c3.19,5.2,7.33,9,14.66,9,6.16,0,10.09-3.08,10.09-7.33,0-5.1-4-6.9-10.83-9.88l-3.72-1.59c-10.73-4.57-17.84-10.3-17.84-22.41,0-11.15,8.5-19.65,21.77-19.65,9.45,0,16.25,3.3,21.13,11.9l-11.58,7.43c-2.54-4.56-5.3-6.37-9.55-6.37s-7.12,2.76-7.12,6.37c0,4.46,2.76,6.27,9.13,9l3.72,1.59c12.64,5.42,19.75,10.94,19.75,23.37,0,13.38-10.51,20.71-24.63,20.71-13.81,0-22.73-6.59-27.09-15.19"/></g></g></svg>