<svg id="Layer_1" data-name="Layer 1" xmlns="http://www.w3.org/2000/svg" viewBox="0 0 200 200"><defs><style>.cls-1{fill:#7159c1;}.cls-2{fill:#fff;}</style></defs><g id="Group_1492" data-name="Group 1492"><rect id="Rectangle_6" data-name="Rectangle 6" class="cls-1" width="200" height="200" rx="5"/><path id="Union_41" data-name="Union 41" class="cls-2" d="M104.47,151.71c-1.25-1.13-2.56-2.26-3.8-3.5-1,.94-1.93,1.81-2.93,2.69-12.33,10.82-25,15.32-32.58,10.94-7.29-4.19-9.59-16.58-6.66-32.16q.47-2.54,1.12-5.06c-1.31-.38-2.56-.75-3.8-1.19-15.51-5.38-25.73-14.14-25.73-22.9,0-8.45,9.53-16.64,24.42-21.9,1.68-.56,3.43-1.13,5.23-1.63-.43-1.62-.74-3.19-1.06-4.69-3.11-15.83-.93-28.47,6.42-32.72,7.66-4.5,20.37.31,33.14,11.63.75.69,1.5,1.44,2.3,2.19,1.18-1.12,2.3-2.25,3.49-3.25,12.09-10.57,24.11-15,31.46-10.76,7.66,4.38,9.9,17.89,6.48,34.6-.19,1.07-.44,2.07-.69,3.13,1.56.44,3.12.94,4.55,1.44,15.2,5.26,25,13.45,24.91,22.09,0,8.82-10.52,17.51-26.66,22.9-.87.25-1.74.56-2.61.81.37,1.25.62,2.5.87,3.75,3.24,16.21.75,29.47-6.79,33.85a12.78,12.78,0,0,1-6.56,1.65C122.07,163.61,113.3,159.33,104.47,151.71Zm12.21-23a146.07,146.07,0,0,1-11.78,15c1.19,1.19,2.37,2.25,3.55,3.25,10.28,8.89,19.75,12.2,24.17,9.64,2.06-1.19,3.8-4.19,4.61-8.76.94-5,.69-11.51-.75-18.65-.18-1.12-.43-2.25-.74-3.44a151.58,151.58,0,0,1-19.06,3Zm-52.2,2c-2.56,13.33-.69,23.28,3.73,25.85,2.06,1.18,5.49,1.18,9.85-.38,4.8-1.69,10.27-5.07,15.76-9.89.93-.75,1.8-1.62,2.74-2.5a152.92,152.92,0,0,1-12.09-15,150.45,150.45,0,0,1-19-2.75c-.37,1.62-.68,3.19-1,4.69Zm36.25,8.76A130.19,130.19,0,0,0,109,129.3c-2.74.13-5.6.19-8.47.19s-5.54-.06-8.22-.19A131.21,131.21,0,0,0,100.73,139.5ZM87.65,78.44C85.28,81.88,83,85.51,80.8,89.33s-4.18,7.57-6,11.39c1.87,3.75,3.86,7.57,6,11.45s4.48,7.44,6.85,10.94c4.11.26,8.41.38,12.77.38s8.72-.12,12.89-.44c2.25-3.44,4.55-7.13,6.73-11s4.24-7.7,6-11.44c-1.8-3.7-3.86-7.51-6-11.33s-4.48-7.45-6.79-10.89c-4.17-.31-8.47-.5-12.83-.5S91.82,78.13,87.65,78.44ZM67.09,120.3a123.49,123.49,0,0,0,13,2.07c-1.5-2.38-3-4.76-4.42-7.26s-2.74-4.88-4-7.32A129.8,129.8,0,0,0,67.09,120.3Zm58.24-5.25c-1.43,2.5-2.86,4.88-4.3,7.2A127.19,127.19,0,0,0,134.18,120a126.45,126.45,0,0,0-4.74-12.45q-2,3.75-4.11,7.5ZM56.44,84.39c-12.71,4.5-20.37,11.07-20.37,16.2,0,2.38,1.75,5.38,5.23,8.38a52.6,52.6,0,0,0,16.45,8.76c1.12.38,2.3.69,3.49,1.07a153,153,0,0,1,6.91-18.08A138.89,138.89,0,0,1,61.3,82.89Q58.78,83.54,56.44,84.39Zm76.43,16.2a144.1,144.1,0,0,1,7.1,17.89c.81-.25,1.62-.5,2.37-.75,13.89-4.63,22.49-11.7,22.55-17.21,0-5.13-8-11.76-21-16.26-1.31-.44-2.74-.88-4.18-1.32a142.51,142.51,0,0,1-6.85,17.65Zm-7.6-14.39c1.44,2.5,2.8,5,4,7.38a112,112,0,0,0,4.49-12.2A129.91,129.91,0,0,0,121,79.13C122.47,81.45,123.9,83.76,125.27,86.2ZM67.16,81.32c1.24,4,2.74,8.07,4.48,12.26,1.25-2.43,2.62-4.88,4-7.32s2.8-4.81,4.3-7.13C75.44,79.69,71.2,80.45,67.16,81.32ZM108,54.73c-1,.94-2.11,1.94-3.17,2.94a137.42,137.42,0,0,1,11.9,14.89,142.44,142.44,0,0,1,18.81,3c.25-.94.43-1.87.62-2.81,2.93-14.39,1.12-25.4-3.61-28.16a6.94,6.94,0,0,0-3.41-.77c-5.09,0-12.9,3.73-21.13,10.91ZM68.09,44.78c-4.42,2.57-6.16,12.83-3.55,26.34.31,1.44.63,2.88,1,4.38a153.4,153.4,0,0,1,18.82-2.94,132.49,132.49,0,0,1,12-14.89c-.69-.69-1.44-1.31-2.12-1.94-8.68-7.72-17-11.8-22.45-11.8A7.25,7.25,0,0,0,68.09,44.78Zm40.74,27.28A115.73,115.73,0,0,0,100.54,62c-2.8,3.06-5.6,6.44-8.34,10.07,2.74-.12,5.48-.19,8.28-.19S106.09,71.94,108.83,72.06ZM88,100.84a12.61,12.61,0,1,1,0,.07Z"/></g></svg>