<svg id="Layer_1" data-name="Layer 1" xmlns="http://www.w3.org/2000/svg" viewBox="0 0 200 200"><defs><style>.cls-1{fill:#7159c1;}.cls-2{fill:#fff;}</style></defs><g id="Group_1544" data-name="Group 1544"><g id="Group_1495" data-name="Group 1495"><rect id="Rectangle_5" data-name="Rectangle 5" class="cls-1" width="200" height="200" rx="5"/></g><g id="es6"><path id="Path_3049" data-name="Path 3049" class="cls-1" d="M16.9,16.9H181.6V181.6H16.9Z"/><path id="Path_3050" data-name="Path 3050" class="cls-2" d="M84.43,119.89h25.29V113H92.24V102.35h16.12V95.47H92.24v-10h17.48V78.61H84.43v41.28Zm59.07-11.22c0-8.24-.56-10-11.66-12.7-7.12-1.74-7.25-1.86-7.25-6.57,0-3.6.93-4.71,6.2-4.71a53.8,53.8,0,0,1,11,1.24l.87-6.57a55.87,55.87,0,0,0-12-1.37c-10.48,0-13.88,3.72-13.88,11.22,0,8.74,1.36,10.66,11.34,12.89,7.44,1.61,7.56,2,7.56,6.57,0,4-.93,5.15-6.57,5.15a39.06,39.06,0,0,1-11.65-1.93L116.1,118a34.74,34.74,0,0,0,12.9,2.48c12.21,0,14.5-4,14.5-11.84ZM157.88,93.3c0-6.32,3-7.56,10.35-7.56a34.45,34.45,0,0,1,5.82.56l.5-6.32a35.52,35.52,0,0,0-7.13-.75c-11.28,0-17.1,3.47-17.1,14.38v15.06c0,7.13,2.11,11.84,12.77,11.84,9.73,0,12.7-4.83,12.7-11.28v-3c0-7.13-3-10.23-10.53-10.23a22.79,22.79,0,0,0-7.38,1.12Zm6.2,9.24c2.72,0,4.15.93,4.15,3.9v3c0,3.16-1.24,4.53-5.15,4.53s-5.2-1.12-5.2-4.53v-5.64a16.51,16.51,0,0,1,6.2-1.3Z"/></g></g></svg>