<svg id="Group_1493" data-name="Group 1493" xmlns="http://www.w3.org/2000/svg" viewBox="0 0 200 200"><defs><style>.cls-1{fill:#7159c1;}.cls-2{fill:#fff;}</style></defs><rect id="Rectangle_7" data-name="Rectangle 7" class="cls-1" width="200" height="200" rx="5"/><g id="nodejs-icon"><path id="Path_61" data-name="Path 61" class="cls-2" d="M94.93,39.13a10.4,10.4,0,0,1,10.14,0l46.29,26.15a9.52,9.52,0,0,1,4.81,8.21V126a9.61,9.61,0,0,1-5.17,8.38l-46.13,26a10.1,10.1,0,0,1-10.24-.29l-13.85-8a8.2,8.2,0,0,1-2.67-1.92c.59-.79,1.64-.89,2.5-1.24a32.65,32.65,0,0,0,5.46-2.55,1.27,1.27,0,0,1,1.42.09c3.94,2.26,7.85,4.58,11.81,6.82.84.49,1.7-.16,2.42-.56q22.64-12.79,45.29-25.56a1.48,1.48,0,0,0,.82-1.47q0-26,0-51.92a1.62,1.62,0,0,0-1-1.62l-46-25.91a1.56,1.56,0,0,0-1.8,0q-23,12.95-46,25.92a1.61,1.61,0,0,0-1,1.61v51.92a1.46,1.46,0,0,0,.84,1.45q6.12,3.48,12.27,6.93c2.31,1.25,5.14,2,7.68,1a5.83,5.83,0,0,0,3.77-5.47c0-17.2,0-34.41,0-51.61A1.31,1.31,0,0,1,78,76.68h.14c2,0,3.93,0,5.9,0a1.37,1.37,0,0,1,1.3,1.43.77.77,0,0,1,0,.15c0,17.31,0,34.62,0,51.94,0,4.61-1.89,9.63-6.16,11.89-5.26,2.72-11.75,2.14-17-.47-4.5-2.24-8.79-4.89-13.2-7.3A9.62,9.62,0,0,1,43.82,126V73.49a9.56,9.56,0,0,1,5-8.31Z"/><path id="Path_62" data-name="Path 62" class="cls-2" d="M108.35,75.47c6.7-.43,13.88-.26,19.92,3,4.67,2.53,7.26,7.84,7.34,13a1.42,1.42,0,0,1-1.53,1c-1.94,0-3.89,0-5.84,0a1.48,1.48,0,0,1-1.4-1.46A8.91,8.91,0,0,0,122.58,85c-3.59-1.8-7.75-1.7-11.66-1.67-2.86.15-5.93.4-8.35,2.08a5.3,5.3,0,0,0-1.76,5.91c.63,1.49,2.34,2,3.75,2.41,8.08,2.11,16.64,1.9,24.57,4.68,3.28,1.14,6.49,3.34,7.62,6.78,1.47,4.6.82,10.11-2.45,13.81-2.66,3-6.53,4.7-10.39,5.6a50,50,0,0,1-15.68.66c-4.9-.56-10-1.85-13.8-5.19a14.44,14.44,0,0,1-4.66-11.41,1.31,1.31,0,0,1,1.43-1.16c2,0,3.92,0,5.88,0a1.37,1.37,0,0,1,1.4,1.35h0c.36,2.37,1.25,4.85,3.32,6.25,4,2.57,9,2.4,13.54,2.47,3.77-.17,8-.22,11.1-2.72a6.13,6.13,0,0,0,1.67-5.85c-.48-1.73-2.29-2.54-3.85-3.07-8-2.52-16.63-1.61-24.54-4.46-3.2-1.13-6.31-3.28-7.54-6.57-1.72-4.67-.93-10.44,2.69-14s8.63-4.92,13.47-5.41Z"/></g></svg>