<svg id="Layer_1" data-name="Layer 1" xmlns="http://www.w3.org/2000/svg" viewBox="0 0 383.85 383.85"><defs><style>.cls-1{fill:#7159c1;}.cls-2{fill:#101010;}.cls-3{fill:#4e4e4e;}.cls-4{fill:gray;}.cls-5{fill:#606060;}.cls-6{fill:#494949;}.cls-7{fill:#363636;}.cls-8{fill:#717171;}.cls-9{fill:#909090;}.cls-10{fill:#929292;}.cls-11{fill:#737373;}.cls-12{fill:#565656;}</style></defs><path class="cls-1" d="M731.93,537.75v4.5a5.68,5.68,0,0,0,0,4.5v3.75c-.47.41-.37,1-.39,1.5s-.08,1.08.39,1.5v3c-1.08,8.89-1.62,17.82-3.71,26.6C721.11,613,708,640,688.22,663.56c-16.73,19.93-36.51,36.22-59.77,48.05A183.38,183.38,0,0,1,598.35,724c-5.33,1.62-6.21,1.07-6.22-4.51q-.06-37.11,0-74.21,0-28.49,0-57c0-6.09.61-6.69,6.59-6.71,10.12,0,20.25-.08,30.36,0,3.12,0,4.55-1.18,4.89-4.25,1.4-12.41,3.24-24.77,4.72-37.17.49-4,.23-4.32-3.82-4.34-11.87,0-23.74,0-35.61,0-6.62,0-7.12-.5-7.13-7,0-9.37-.06-18.74,0-28.11.09-13.54,7.34-20.89,20.88-21.12,7.75-.14,15.5,0,23.24-.05,4.17,0,4.55-.38,4.57-4.46,0-10.87,0-21.74,0-32.61,0-2.4-.43-4-3.37-4.26-14.56-1.08-29.13-2.48-43.72-.63-29.63,3.76-48,25.83-48.85,55.73-.35,11.86,0,23.74-.07,35.61,0,5.84-1,6.8-6.72,6.83-9.87.06-19.74,0-29.61,0-4.62,0-4.87.26-4.88,4.88q0,18,0,36c0,4.54.33,4.85,4.95,4.87,10,0,20,0,30,0,5.57,0,6.28.71,6.28,6.28q0,69.15,0,138.3c0,2.06.45,4.36-1.84,5.72h-4.5a5.68,5.68,0,0,0-4.5,0h-3c-.44-.49-1-.36-1.6-.39h-1.29c-.56,0-1.16-.1-1.6.39h-3c-7.78-.91-15.59-1.42-23.27-3.09A194.31,194.31,0,0,1,367.75,627,185.91,185.91,0,0,1,349,566.83c-.45-3.42-.12-6.93-.92-10.34v-3c.5-.45.36-1,.39-1.61V550.6c0-.56.1-1.16-.39-1.6v-3a5.68,5.68,0,0,0,0-4.5v-3a5.68,5.68,0,0,0,0-4.5v-3c.61-.61.31-1.38.39-2.09s.12-1.19-.39-1.65v-3.75c.91-8,1.51-16.06,3.25-24A194.09,194.09,0,0,1,454.07,367.21a184.06,184.06,0,0,1,59.48-18.27c3.54-.45,7.17-.18,10.71-.87h3c.47.51,1.09.36,1.67.39h2.68c.57,0,1.19.12,1.65-.39h13.5c.49.53,1.14.35,1.75.39h3.26c.6,0,1.25.14,1.73-.39H555c8.65.83,17.3,1.39,25.84,3.29A194,194,0,0,1,712.78,454.07a184.08,184.08,0,0,1,18.28,59.48c.48,3.79.2,7.67.87,11.46v3.75a1.68,1.68,0,0,0,0,2.24v2.25A5.68,5.68,0,0,0,731.93,537.75Z" transform="translate(-348.07 -348.07)"/><path class="cls-1" d="M731.93,537.75a3.39,3.39,0,0,1,0-4.5Z" transform="translate(-348.07 -348.07)"/><path class="cls-1" d="M348.07,534a3.38,3.38,0,0,1,0,4.5Z" transform="translate(-348.07 -348.07)"/><path class="cls-1" d="M348.07,541.5a3.38,3.38,0,0,1,0,4.5Z" transform="translate(-348.07 -348.07)"/><path class="cls-1" d="M731.93,546.75a3.36,3.36,0,0,1,0-4.5Z" transform="translate(-348.07 -348.07)"/><path class="cls-2" d="M534,731.93a3.39,3.39,0,0,1,4.5,0Z" transform="translate(-348.07 -348.07)"/><path class="cls-3" d="M550.54,348.71H548.3c-.28-.12-.38-.26-.3-.4s.16-.24.25-.24h2.25c.23.13.31.27.25.41S550.61,348.71,550.54,348.71Z" transform="translate(-348.07 -348.07)"/><path class="cls-1" d="M348.72,528.72c.1.85.32,1.73-.65,2.28v-2.24C348.27,528.43,348.49,528.42,348.72,528.72Z" transform="translate(-348.07 -348.07)"/><path class="cls-1" d="M731.93,531c-.91-.75-1.16-1.5,0-2.24Z" transform="translate(-348.07 -348.07)"/><path class="cls-4" d="M528.72,348.7c-.62.08-1.27.25-1.47-.63h1.5c.26.16.33.3.24.44S528.81,348.7,528.72,348.7Z" transform="translate(-348.07 -348.07)"/><path class="cls-5" d="M528.72,348.7q0-.31,0-.63h1.5c.26.16.33.3.24.44s-.18.19-.27.19Z" transform="translate(-348.07 -348.07)"/><path class="cls-6" d="M530.22,348.7q0-.31,0-.63h1.5q.38.24.24.45c-.09.14-.18.2-.27.2Z" transform="translate(-348.07 -348.07)"/><path class="cls-7" d="M531.72,348.72c0-.21,0-.43,0-.65h1.5A1.26,1.26,0,0,1,531.72,348.72Z" transform="translate(-348.07 -348.07)"/><path class="cls-7" d="M548.25,348.07c0,.22,0,.43,0,.64a1.27,1.27,0,0,1-1.55-.64Z" transform="translate(-348.07 -348.07)"/><path class="cls-8" d="M550.54,348.71a4.49,4.49,0,0,1,0-.64H552c.23.13.31.27.24.41s-.14.23-.21.23Z" transform="translate(-348.07 -348.07)"/><path class="cls-9" d="M552,348.71a3.43,3.43,0,0,1,0-.64h1.49C553.32,349,552.65,348.8,552,348.71Z" transform="translate(-348.07 -348.07)"/><path class="cls-1" d="M348.72,528.72l-.65,0v-1.5C349,527.43,348.8,528.1,348.72,528.72Z" transform="translate(-348.07 -348.07)"/><path class="cls-1" d="M348.07,549c.72.31.75.89.63,1.54-.23.28-.44.28-.63,0Z" transform="translate(-348.07 -348.07)"/><path class="cls-1" d="M348.07,550.5l.63,0V552q-.33.45-.63,0Z" transform="translate(-348.07 -348.07)"/><path class="cls-1" d="M731.3,552c-.14-.66-.19-1.27.63-1.53V552Q731.63,552.48,731.3,552Z" transform="translate(-348.07 -348.07)"/><path class="cls-1" d="M348.07,552l.63,0c.1.62.32,1.29-.63,1.47Z" transform="translate(-348.07 -348.07)"/><path class="cls-1" d="M731.3,552l.63,0v1.5C731,553.33,731.2,552.65,731.3,552Z" transform="translate(-348.07 -348.07)"/><path class="cls-10" d="M526.51,731.93c.17-.94.85-.72,1.46-.63.27.13.36.26.28.4s-.16.23-.25.23Z" transform="translate(-348.07 -348.07)"/><path class="cls-11" d="M528,731.93q0-.31,0-.63h1.49c.27.13.37.26.29.4s-.16.23-.25.23Z" transform="translate(-348.07 -348.07)"/><path class="cls-12" d="M529.5,731.93c0-.21,0-.42,0-.63.65-.12,1.24-.1,1.54.63Z" transform="translate(-348.07 -348.07)"/></svg>