<svg id="Layer_1" data-name="Layer 1" xmlns="http://www.w3.org/2000/svg" viewBox="0 0 383.86 368.71"><defs><style>.cls-1{fill:#7159c1;}</style></defs><path class="cls-1" d="M731.93,561c-1.92,3.46-1.47,7.39-2.06,11.09C722,621.6,698,661.54,658.78,692.47a187.39,187.39,0,0,1-56.8,30.3,16.62,16.62,0,0,1-4,.87c-7,.52-10.88-3-10.88-10,0-16.74.07-33.48.14-50.21a61.13,61.13,0,0,0-2.87-19.54A37.68,37.68,0,0,0,574.54,628c7.94-1.28,15.52-2.19,22.93-4,16.25-4,31.16-10.6,42.86-23.05,12.49-13.28,18.16-29.58,20.34-47.28,1.42-11.55,1.94-23.13-.43-34.67a70.5,70.5,0,0,0-16.11-32.46,4.45,4.45,0,0,1-1-4.94c4.73-15.27,3.23-30.29-2-45.17-1.13-3.22-3.69-2.49-5.83-2.44-7.34.17-14.24,2.36-21,5.14a132.91,132.91,0,0,0-24,13,6.27,6.27,0,0,1-5.55.93,181.21,181.21,0,0,0-90,0,6.82,6.82,0,0,1-5.87-1.09c-11.8-7.55-24-14.24-37.93-17.13-11.18-2.33-12.46-1.54-15.25,9.54-3.23,12.87-3.56,25.68,1,38.33.54,1.52,0,2.25-.86,3.22-16.16,18-20,39.56-17.71,62.84,1.37,13.77,4.4,27.06,11.35,39.2,11,19.19,28.36,29.56,49,35.3A184,184,0,0,0,504.72,628c-6.76,6.79-10.14,14.79-11.64,23.67a2.56,2.56,0,0,1-1.73,2.2c-14.71,5.53-29.14,6.9-42.76-3-4.82-3.49-8.35-8.15-11.54-13.14-6.52-10.18-15.08-17.53-27.52-19.43a18.21,18.21,0,0,0-6.67.29c-1.6.33-3.34.65-3.84,2.49s.74,3.1,1.91,4.21a25,25,0,0,0,4.35,3.54,48,48,0,0,1,20.77,25.27c9.09,24.53,31.69,32.39,53.92,30.12,3.95-.41,7.88-1,12.3-1.62,0,11,.32,22-.12,33-.27,6.93-6.72,10-14.39,7.41a187.44,187.44,0,0,1-63.12-35.63q-52.09-44.67-64.16-112.34c-.83-4.69-.4-9.59-2.41-14.07v-3c.46-.42.37-1,.39-1.5s.07-1.09-.39-1.5v-3.75a5.68,5.68,0,0,0,0-4.5V543a5.65,5.65,0,0,0,0-4.49v-3c.51-.47.35-1.08.39-1.66s.22-1.48-.39-2.09v-3A180.78,180.78,0,0,1,393.3,421.69a195.7,195.7,0,0,1,235.31-45.38,188.83,188.83,0,0,1,68.81,58.86c17.81,24.78,29.19,52.22,33.46,82.51.56,3.93.22,7.93,1,11.83v3c-.46.41-.37,1-.39,1.5s-.07,1.08.39,1.5v2.25a5.69,5.69,0,0,0,0,4.49v10.5c-.52.48-.35,1.12-.39,1.71v1.83c0,.59-.13,1.23.39,1.71Z" transform="translate(-348.07 -355.23)"/><path class="cls-1" d="M731.93,542.25a3.37,3.37,0,0,1,0-4.49Z" transform="translate(-348.07 -355.23)"/><path class="cls-1" d="M348.07,538.51a3.36,3.36,0,0,1,0,4.49Z" transform="translate(-348.07 -355.23)"/><path class="cls-1" d="M348.07,546.75a3.37,3.37,0,0,1,0,4.5Z" transform="translate(-348.07 -355.23)"/><path class="cls-1" d="M348.07,531.76c1.2.45.61,1.41.62,2.19-.18.38-.38.42-.62.06Z" transform="translate(-348.07 -355.23)"/><path class="cls-1" d="M731.28,556.53l0-2.22c.17-.38.37-.42.62-.06v2.25C731.73,556.82,731.51,556.83,731.28,556.53Z" transform="translate(-348.07 -355.23)"/><path class="cls-1" d="M731.3,534c-.08-.61-.2-1.24.63-1.46V534C731.69,534.36,731.48,534.33,731.3,534Z" transform="translate(-348.07 -355.23)"/><path class="cls-1" d="M348.07,534a3.26,3.26,0,0,1,.62-.06c.14.66.09,1.24-.62,1.56Z" transform="translate(-348.07 -355.23)"/><path class="cls-1" d="M731.3,534c.21,0,.42,0,.63,0v1.5C731.22,535.2,731.17,534.62,731.3,534Z" transform="translate(-348.07 -355.23)"/><path class="cls-1" d="M731.93,554.25c-.21,0-.41,0-.62.06a1.22,1.22,0,0,1,.62-1.56Z" transform="translate(-348.07 -355.23)"/><path class="cls-1" d="M348.07,555c.79.27.76.88.63,1.53q-.33.45-.63,0Z" transform="translate(-348.07 -355.23)"/><path class="cls-1" d="M348.07,556.5l.63,0c.1.62.3,1.28-.63,1.47Z" transform="translate(-348.07 -355.23)"/><path class="cls-1" d="M731.28,556.53l.65,0V558C731,557.82,731.2,557.15,731.28,556.53Z" transform="translate(-348.07 -355.23)"/></svg>