<?xml version="1.0" encoding="utf-8"?>
<!-- Generator: Adobe Illustrator 24.2.1, SVG Export Plug-In . SVG Version: 6.00 Build 0)  -->
<svg version="1.1" id="Layer_1" xmlns="http://www.w3.org/2000/svg" xmlns:xlink="http://www.w3.org/1999/xlink" x="0px" y="0px"
	 viewBox="0 0 511.8 511.8" style="enable-background:new 0 0 511.8 511.8;" xml:space="preserve">
<style type="text/css">
	.st0{fill:#7159C1;}
	.st1{fill:#242630;}
</style>
<path class="st0" d="M237.9,511.8h-4c-10.7-1.2-21.4-2-32-4.3c-42.1-9.4-79.7-27.8-112.5-55.8c-26.5-22.4-48.2-50-63.8-81.1
	C13,345.7,4.7,318.8,1.1,291.2c-0.6-4.7-0.2-9.6-1.2-14.3v-4c0.7-0.6,0.5-1.5,0.5-2.3v-2.5c0-0.8,0.2-1.6-0.5-2.3v-12
	c0.8-1.9,0.8-4.1,0-6v-4c0.6-0.6,0.5-1.3,0.5-2s0.1-1.5-0.5-2v-5c1.1-11.4,2-22.8,4.5-33.9C21.3,125,71.4,60.7,140.9,25.7
	c25-12.7,52-21,79.8-24.6c4.7-0.6,9.5-0.2,14.3-1.2h4c0.6,0.7,1.5,0.5,2.2,0.5h3.6c0.8,0,1.6,0.2,2.2-0.5h18
	c0.7,0.7,1.5,0.5,2.3,0.5h4.3c0.8,0,1.7,0.2,2.3-0.5h2c11.4,1.1,22.8,1.8,34,4.3c40.9,9.1,77.7,26.6,109.9,53.5
	c34.5,28.7,60.1,64,76.2,105.9c8.7,22.6,14.9,45.9,15.3,70.4c-0.1,0.7,0.1,1.3,0.5,1.8v5c-0.8,0.9-0.8,2.1,0,3v4
	c-0.8,1.9-0.8,4.1,0,6v5c-0.8,1.9-0.8,4.1,0,6v3c-0.6,0.5-0.6,1.3-0.2,1.8c0.1,0.1,0.1,0.1,0.2,0.2v7c-1.2,8-1.2,16.2-2.6,24.2
	c-13.5,74.4-58.9,139.1-124.2,177.2c-28.9,16.7-59.8,27.7-92.9,32.2c-5.7,0.8-11.5,0.3-17.3,1.3h-2c-0.8-0.8-1.8-0.4-2.8-0.5
	c-0.8,0-1.6-0.2-2.2,0.5h-5c-1.6-0.8-3.4-0.8-5,0h-4c-1.9-0.8-4.1-0.8-6,0h-4c-0.6-0.7-1.4-0.5-2.1-0.5H240
	C239.3,511.3,238.5,511.1,237.9,511.8z"/>
<path class="st0" d="M247.9,511.8c1.7-1.5,4.3-1.5,6,0H247.9z"/>
<path class="st0" d="M0,247.9c1.5,1.7,1.5,4.3,0,6V247.9z"/>
<path class="st0" d="M511.8,264.9c-1.5-1.7-1.5-4.3,0-6V264.9z"/>
<path class="st0" d="M511.8,253.9c-1.5-1.7-1.5-4.3,0-6V253.9z"/>
<path class="st0" d="M257.9,511.8c1.2-1.4,3.4-1.5,4.7-0.3c0.1,0.1,0.2,0.2,0.3,0.3H257.9z"/>
<path class="st0" d="M270,511c1,0,2.3-0.9,2.9,0.8h-3c-0.3-0.2-0.4-0.4-0.3-0.6C269.7,511.1,269.8,511,270,511z"/>
<path class="st0" d="M269.9,0.9h-3c-0.4-0.2-0.5-0.3-0.4-0.5s0.2-0.3,0.3-0.3h3c0.3,0.2,0.4,0.4,0.3,0.6S270,0.9,269.9,0.9z"/>
<path class="st0" d="M511.8,243.9c-1.2-1-1.5-2,0-3V243.9z"/>
<path class="st0" d="M0.8,268l0,3c-0.3,0.4-0.6,0.4-0.9,0v-3C0.3,267.4,0.6,267.5,0.8,268z"/>
<path class="st0" d="M240.9,0.9c-0.8,0.1-1.7,0.3-2-0.9h2c0.3,0.2,0.4,0.4,0.3,0.6S241,0.9,240.9,0.9z"/>
<path class="st0" d="M273.9,0c-0.2,1.2-1.1,1-2,0.8c-0.4-0.2-0.5-0.4-0.4-0.5s0.2-0.3,0.3-0.3H273.9z"/>
<path class="st0" d="M271.9,0c0,0.3,0,0.6,0,0.8h-2c0-0.3-0.1-0.6-0.1-0.9L271.9,0z"/>
<path class="st0" d="M0.8,268L0,267.9v-2C0.8,266.3,1.1,267.2,0.8,268z"/>
<path class="st0" d="M0.8,241.9c0.2,0.9,0.1,1.7-0.8,2.1v-2C0.3,241.5,0.5,241.4,0.8,241.9z"/>
<path class="st0" d="M511.8,269.9c-1.3-0.7-1.1-1.3,0-2V269.9z"/>
<path class="st0" d="M0,270.9c0.3,0,0.6,0,0.9,0c0.1,0.8,0.4,1.7-0.9,1.9V270.9z"/>
<path class="st0" d="M266.9,0c0,0.3,0,0.6,0.1,0.8c-0.8,0.3-1.7-0.1-2.1-0.8H266.9z"/>
<path class="st0" d="M246.9,0c-0.4,0.9-1.2,1-2,0.9c-0.3-0.2-0.4-0.4-0.3-0.6s0.2-0.3,0.3-0.3H246.9z"/>
<path class="st0" d="M237.9,511.8c0.2-1.2,1.1-1,2-0.8c0.4,0.2,0.5,0.3,0.4,0.5s-0.2,0.3-0.3,0.3L237.9,511.8z"/>
<path class="st0" d="M239.9,511.8c0-0.3,0-0.5,0-0.8h2c0.4,0.2,0.5,0.3,0.4,0.5s-0.2,0.3-0.3,0.3H239.9z"/>
<path class="st0" d="M241.9,511.8c0-0.3,0-0.5-0.1-0.8c0.9-0.2,1.7-0.1,2,0.8H241.9z"/>
<path class="st0" d="M244.9,0c0,0.3,0,0.6,0,0.9h-2c-0.3-0.2-0.4-0.4-0.3-0.6s0.2-0.3,0.3-0.3H244.9z"/>
<path class="st0" d="M242.9,0c0,0.3,0,0.6,0,0.9h-2c0-0.3,0-0.6,0-0.9L242.9,0z"/>
<path class="st0" d="M270,511c0,0.3,0,0.5-0.1,0.8h-2C268.3,510.8,269.1,510.8,270,511z"/>
<path class="st0" d="M0.8,241.9L0,242v-2C1.1,240.2,1,241,0.8,241.9z"/>
<path class="st1" d="M109,255.4c0.1-21-0.2-42,1-63c1.7-27.9,11-52,35.1-68.3c13.9-9.4,29.7-13.4,46.2-14.1c43-1.9,85.9-2,128.9,0
	c28.2,1.3,52.2,11.5,68.2,36.1c8.9,13.8,12.7,29.3,13.3,45.4c1.8,42.8,2,85.6,0,128.4c-1.4,30-12.8,54.9-39.9,70.5
	c-13,7.5-27.3,10.6-42,11.2c-42.6,1.8-85.3,1.9-127.9,0c-27.8-1.3-51.6-11.1-67.7-35.1c-9.5-14.2-13.1-30.4-14.1-47.2
	C108.7,298.1,109,276.7,109,255.4z"/>
<path class="st0" d="M135.3,255.5c0.6-22.1-0.3-44.3,1.5-66.4c2.5-30.9,21.5-50.4,52.5-52.1c44.6-2.5,89.2-2.5,133.8,0
	c30.3,1.7,49.9,21.5,51.7,51.8c2.5,44.7,2.5,89.6,0,134.3c-1.7,30.2-21.6,49.9-51.8,51.7c-44.7,2.5-89.5,2.5-134.3,0
	c-30.2-1.7-49.4-21.5-51.8-51.8C135.1,300.5,136,278,135.3,255.5z"/>
<path class="st1" d="M255.9,180.5c41.6,0,75.4,33.8,75.4,75.5c0,41.6-33.8,75.4-75.5,75.4c-41.6,0-75.3-33.7-75.4-75.3
	c-0.1-41.6,33.6-75.4,75.2-75.5C255.7,180.5,255.8,180.5,255.9,180.5z"/>
<path class="st1" d="M334.1,195c-9.7-0.1-17.5-8.1-17.3-17.8s8.1-17.5,17.8-17.3c9.6,0.1,17.3,7.9,17.3,17.5
	c0.1,9.6-7.6,17.5-17.2,17.6C334.5,195,334.3,195,334.1,195z"/>
<path class="st0" d="M304.9,255.7c0.1,27.1-21.7,49.1-48.8,49.2c-27.1,0.1-49.1-21.7-49.2-48.8c-0.1-27.1,21.7-49.1,48.8-49.2
	c0.1,0,0.2,0,0.2,0C282.9,206.9,304.8,228.7,304.9,255.7z"/>
</svg>
